<?xml version="1.0" encoding="UTF-8"?>
<svg version="1.1" xmlns="http://www.w3.org/2000/svg" width="14226" height="4549">
<path d="M0 0 C72.30451446 -0.05145561 144.60903112 -0.09914892 216.91355896 -0.12702942 C217.98490894 -0.12744359 219.05625891 -0.12785776 220.16007404 -0.12828448 C243.44739814 -0.1372647 266.73472243 -0.14557503 290.02204702 -0.15319599 C301.44332761 -0.15693776 312.86460815 -0.16082746 324.28588867 -0.16479492 C325.99065584 -0.16538334 325.99065584 -0.16538334 327.72986274 -0.16598364 C364.52006759 -0.17875137 401.31025855 -0.20127307 438.10045499 -0.22889166 C475.92972904 -0.25723849 513.75899541 -0.27566769 551.58827991 -0.28174497 C556.94016471 -0.28260934 562.29204948 -0.28358625 567.64393425 -0.28463173 C568.69718795 -0.284834 569.75044166 -0.28503627 570.83561214 -0.28524467 C587.741306 -0.28877996 604.64697602 -0.30266741 621.55266019 -0.3204961 C638.57811432 -0.33822764 655.60354498 -0.34488656 672.629008 -0.34050413 C682.7249799 -0.33823479 692.82086543 -0.34419373 702.91682162 -0.36239263 C709.68607521 -0.37375305 716.45527311 -0.37391438 723.22453074 -0.36549544 C727.0654438 -0.36102358 730.90619514 -0.36091761 734.74708993 -0.37464955 C801.66013496 -0.59937566 867.54584583 14.15166301 928 43 C928.98403809 43.46744629 929.96807617 43.93489258 930.98193359 44.41650391 C953.39759873 55.14035794 974.84703134 67.44206037 995 82 C995.73879395 82.52916016 996.47758789 83.05832031 997.23876953 83.60351562 C1012.66051409 94.67422772 1027.40148517 106.40021971 1041.23046875 119.4140625 C1043.40490961 121.44435848 1045.60263999 123.3953483 1047.875 125.3125 C1056.61053811 132.87460762 1064.96450257 141.30691041 1072.4140625 150.13671875 C1074.30191407 152.35471185 1076.27702792 154.48242155 1078.25 156.625 C1083.29082782 162.2192971 1087.91089712 168.09805079 1092.50244141 174.06103516 C1094.04825404 176.06247694 1095.60743442 178.05299057 1097.16796875 180.04296875 C1151.88612923 250.20245942 1185.66140969 338.63774829 1187.3125 518.3125 C1183.82920634 544.70179877 1178.01731311 570.61966298 1170 596 C1169.45351807 597.73612549 1169.45351807 597.73612549 1168.89599609 599.50732422 C1149.35998205 660.67195191 1116.40199741 718.35174588 1072.49609375 765.31640625 C1070.19234336 767.79320831 1067.97043054 770.32377906 1065.75 772.875 C1060.19995811 779.05820175 1054.05993874 784.60133904 1047.94189453 790.2109375 C1046.0525335 791.95160102 1044.17812956 793.70683138 1042.30859375 795.46875 C1035.4260735 801.94696792 1028.42691227 808.1436195 1021 814 C1020.38237793 814.4954834 1019.76475586 814.9909668 1019.12841797 815.50146484 C991.93918897 837.31145956 962.30837521 855.84769888 930.94921875 871.04980469 C929.06279655 871.96938825 927.18755161 872.90906044 925.3125 873.8515625 C866.4700995 902.97046426 799.27374851 916.42960004 733.89453125 916.07421875 C731.9517025 916.06824263 730.00887194 916.06282791 728.06604004 916.0579834 C723.37731401 916.04509952 718.68867796 916.02471654 714 916 C714.08210526 955.77117279 714.17441379 995.54231027 714.28005161 1035.31342782 C714.29256768 1040.02877591 714.30500089 1044.74412421 714.31738281 1049.45947266 C714.31984881 1050.39805436 714.3223148 1051.33663607 714.32485552 1052.30365965 C714.36437674 1067.42070156 714.39721441 1082.53775076 714.42749982 1097.65481368 C714.45882089 1113.21301981 714.49751502 1128.77119556 714.54279006 1144.3293674 C714.57041174 1153.89832992 714.59255598 1163.46727072 714.60726251 1173.03626195 C714.61795867 1179.63412436 714.63593591 1186.2319442 714.65916704 1192.82977423 C714.67228886 1196.61339345 714.68265771 1200.39695416 714.68421364 1204.18059731 C714.6997436 1232.41455505 715.8034244 1260.6576968 718.75 1288.75 C718.83236908 1289.55465698 718.91473816 1290.35931396 718.99960327 1291.18835449 C724.79516554 1347.37731029 736.05339199 1403.11193751 753 1457 C753.22473999 1457.71675903 753.44947998 1458.43351807 753.68103027 1459.17199707 C766.03730447 1498.48224123 781.02095857 1537.20740796 799.91748047 1573.86572266 C801.19292321 1576.38036416 802.42689486 1578.91362639 803.66015625 1581.44921875 C810.30633723 1595.05498511 817.53378489 1608.186423 825.3125 1621.17626953 C826.9092518 1623.84814907 828.48850091 1626.52951523 830.0625 1629.21484375 C843.30712683 1651.70749623 858.16589264 1673.25477913 874 1694 C875.13115234 1695.49853516 875.13115234 1695.49853516 876.28515625 1697.02734375 C885.40240171 1709.02059834 894.88202591 1720.76526955 905.05859375 1731.87890625 C906.90328671 1733.89433538 908.70756569 1735.93808809 910.5 1738 C911.66622004 1739.333724 912.83294609 1740.66700561 914 1742 C914.57613037 1742.66298096 915.15226074 1743.32596191 915.74584961 1744.0090332 C922.49827058 1751.65396264 929.69053827 1758.84236802 936.91137695 1766.04174805 C939.06512522 1768.19011866 941.21345226 1770.34380694 943.36132812 1772.49804688 C944.75228354 1773.88834168 946.14354903 1775.27832636 947.53515625 1776.66796875 C948.16559341 1777.30043015 948.79603058 1777.93289154 949.4455719 1778.58451843 C953.80317677 1782.91964272 958.34068097 1786.9928123 963 1791 C964.16768878 1792.02227117 965.33451444 1793.04553017 966.5 1794.0703125 C998.7644309 1822.28282479 1033.58736759 1847.05299323 1071 1868 C1071.88284668 1868.49822266 1072.76569336 1868.99644531 1073.67529297 1869.50976562 C1149.58456288 1912.18796884 1235.31271705 1936.1147631 1322.36206055 1938.65893555 C1323.90180542 1938.70594604 1323.90180542 1938.70594604 1325.47265625 1938.75390625 C1326.82242554 1938.78979858 1326.82242554 1938.78979858 1328.19946289 1938.82641602 C1331.48334541 1939.0299589 1334.74288351 1939.53469764 1338 1940 C1338 2026.13 1338 2112.26 1338 2201 C1293.67705191 2201 1293.67705191 2201 1279.625 2199.8125 C1278.39049103 2199.7150499 1278.39049103 2199.7150499 1277.13104248 2199.6156311 C1195.28222753 2193.1523578 1114.56024204 2174.58054156 980 2117 C979.05527832 2116.54125488 978.11055664 2116.08250977 977.13720703 2115.60986328 C926.91132416 2091.1958467 880.16177958 2060.0398997 836 2026 C835.30777344 2025.46665039 834.61554688 2024.93330078 833.90234375 2024.38378906 C826.4690492 2018.64092033 819.2212267 2012.71733694 812.08203125 2006.61328125 C809.26364971 2004.20918687 806.38828047 2001.88232006 803.5 1999.5625 C798.7450895 1995.69609833 794.23338355 1991.61471132 789.765625 1987.42407227 C786.90917843 1984.74615361 784.01653986 1982.12496992 781.0625 1979.5546875 C768.83547198 1968.90341972 757.3478984 1957.44948235 745.875 1946 C745.28850677 1945.41609497 744.70201355 1944.83218994 744.0977478 1944.23059082 C738.4140797 1938.5667202 732.77597011 1932.92008923 727.56591797 1926.81103516 C724.70059418 1923.49719483 721.64438928 1920.36032467 718.625 1917.1875 C713.51903762 1911.78568515 708.66266152 1906.31128023 704.03125 1900.49609375 C701.97783831 1897.97276669 699.82811943 1895.58067727 697.625 1893.1875 C693.64316413 1888.81299174 689.98257917 1884.25470925 686.36108398 1879.58349609 C683.39954516 1875.76685432 680.38040171 1872.00788283 677.30761719 1868.28027344 C670.09751523 1859.5229766 663.33057199 1850.48489503 656.67480469 1841.30126953 C655.15302286 1839.21026144 653.61549322 1837.13233357 652.0703125 1835.05859375 C635.21421232 1812.28534714 619.48154316 1788.34653446 605 1764 C604.44199707 1763.06365723 603.88399414 1762.12731445 603.30908203 1761.16259766 C591.00327125 1740.44290469 579.50589008 1719.30830358 568.48242188 1697.88134766 C567.51277089 1695.99666042 566.54022976 1694.11345663 565.56445312 1692.23193359 C546.22702138 1654.8634741 530.09056823 1615.62263664 516 1576 C515.75785767 1575.3208252 515.51571533 1574.64165039 515.26623535 1573.94189453 C485.02268691 1489.01488435 465.60310124 1400.53331274 455.8125 1299.25 C455.73359528 1298.40464691 455.65469055 1297.55929382 455.57339478 1296.68832397 C451.4083666 1251.4887475 451.71004416 1206.15083188 451.76128718 1160.81167169 C451.77189846 1151.10928634 451.77102082 1141.4069097 451.77005186 1131.70451982 C451.76861833 1113.04867681 451.7788718 1094.39285509 451.79470261 1075.73701955 C451.80833154 1059.66168539 451.81747642 1043.58635589 451.82275391 1027.51101685 C451.85586504 929.85859997 451.93582943 832.20646696 453 655 C453.58010309 654.99864347 454.16020617 654.99728694 454.75788814 654.99588931 C489.25532307 654.91497347 523.75271629 654.82391225 558.25008952 654.71994839 C562.40622808 654.70743178 566.56236689 654.69499866 570.71850586 654.68261719 C571.545805 654.68015119 572.37310414 654.6776852 573.22547295 654.67514448 C586.56383232 654.63558419 599.9022 654.60276346 613.24058334 654.57250018 C626.96021891 654.54121935 640.67981975 654.50254114 654.39941615 654.45720994 C662.84290263 654.42953837 671.28636416 654.40741474 679.7298834 654.39273749 C685.54556238 654.3820714 691.3611926 654.36412305 697.17683456 654.34083296 C700.51582419 654.32766431 703.85468894 654.31842748 707.19371223 654.31578636 C720.32497091 654.30355543 733.38638779 654.05654279 746.4875946 653.11679077 C747.55723601 653.04111551 748.62687742 652.96544025 749.7289322 652.8874718 C796.4191642 649.17763819 844.93715698 627.53384031 875.8046875 591.59765625 C876.52914062 590.74042969 877.25359375 589.88320313 878 589 C878.84820313 588.04996094 879.69640625 587.09992187 880.5703125 586.12109375 C888.32208859 577.36670442 894.79405953 567.89619603 901 558 C901.40992187 557.35224609 901.81984375 556.70449219 902.2421875 556.03710938 C928.61756439 513.77455077 934.57026464 461.35215107 923.75 413.30078125 C911.70073935 362.75801425 880.50037492 318.8692958 836.375 291.375 C800.06951814 269.55529854 762.0526662 261.86237425 720.16970825 261.84178162 C718.18596991 261.83720756 716.20223251 261.83220633 714.2184962 261.82681805 C708.80017691 261.81332351 703.38186384 261.80584397 697.96353221 261.79939139 C692.10822881 261.79134898 686.25293819 261.77766457 680.39764404 261.76467896 C670.26380949 261.74297043 660.12997361 261.72480552 649.99612808 261.70907402 C635.34443858 261.68632399 620.69276236 261.65819163 606.04108511 261.62875474 C582.26746817 261.58105532 558.49384499 261.53785213 534.72021484 261.49731445 C511.63166856 261.45793461 488.54312744 261.41650487 465.45458984 261.37231445 C464.74227248 261.37095192 464.02995512 261.36958939 463.29605239 261.36818558 C456.14234183 261.35449961 448.98863135 261.34077213 441.83492093 261.32701423 C427.26339135 261.29899146 412.69186124 261.27124571 398.12033081 261.2436676 C397.45042916 261.2423994 396.78052752 261.2411312 396.09032582 261.23982458 C351.39355894 261.15524032 306.69678029 261.0771329 262 261 C262.00046794 261.93852461 262.00093588 262.87704922 262.00141801 263.84401397 C262.08585713 433.44250979 262.08585713 433.44250979 262.12702942 570.6026001 C262.12744777 572.14717552 262.12786613 573.69175095 262.12828448 575.23632638 C262.13705442 607.66447001 262.14520436 640.09261377 262.15263903 672.52075773 C262.15637493 688.81289982 262.16022984 705.10504188 262.16419732 721.39718391 C262.16479508 723.85463936 262.16538943 726.31209481 262.16598364 728.76955025 C262.17515279 766.56627867 262.18685875 804.36300419 262.20599365 842.159729 C262.20640435 842.97106532 262.20681505 843.78240164 262.20723819 844.6183239 C262.21387448 857.69767511 262.22072562 870.7770262 262.22760532 883.85637728 C262.24744182 921.57480964 262.26566342 959.29323973 262.27341938 997.01167679 C262.27357999 997.78897299 262.27374059 998.5662692 262.27390606 999.36711983 C262.27740511 1016.43953014 262.28008886 1033.51194047 262.28200295 1050.58435103 C262.2827877 1057.45596599 262.28368958 1064.32758093 262.28463173 1071.19919586 C262.28473201 1071.95121716 262.28483229 1072.70323845 262.28493561 1073.47804827 C262.28821322 1097.62160897 262.30098627 1121.76515295 262.31884663 1145.90870693 C262.33682608 1170.27293844 262.34527448 1194.63715381 262.34087196 1219.00139211 C262.3402629 1222.38495809 262.33976069 1225.76852407 262.33932304 1229.15209007 C262.33918858 1230.14681402 262.33918858 1230.14681402 262.3390514 1231.16163339 C262.33785067 1242.19951815 262.34845352 1253.23736518 262.36239263 1264.27523969 C262.37375204 1273.93680206 262.37391504 1283.5983254 262.36549544 1293.2598906 C262.36102312 1298.74208098 262.36091987 1304.22415805 262.37464955 1309.70633563 C262.58336962 1398.4121011 249.72962926 1485.31766428 156 1715 C155.48501953 1715.87962402 154.97003906 1716.75924805 154.43945312 1717.66552734 C137.22628742 1746.96939936 117.93845763 1775.23605734 97 1802 C96.10780585 1803.15083467 95.21588637 1804.30188232 94.32421875 1805.453125 C88.91379295 1812.41501345 83.34561345 1819.211978 77.6171875 1825.9140625 C75.19308244 1828.75605565 72.84268601 1831.65290065 70.5 1834.5625 C66.44174232 1839.55168418 62.15484434 1844.27670615 57.7734375 1848.98046875 C55.65420255 1851.26537806 53.5939414 1853.59555058 51.546875 1855.9453125 C40.90665338 1868.14688663 29.49428013 1879.60911544 18.0625 1891.0625 C17.11222931 1892.01665298 17.11222931 1892.01665298 16.14276123 1892.99008179 C3.91286879 1905.25932598 3.91286879 1905.25932598 -2.28881836 1910.53393555 C-5.22252074 1913.04740149 -8.00303841 1915.72459516 -10.8125 1918.375 C-15.85910944 1923.10196376 -21.03334148 1927.57509143 -26.43359375 1931.8984375 C-28.97559363 1933.98001427 -31.39529335 1936.1503838 -33.8125 1938.375 C-38.18700826 1942.35683587 -42.74529075 1946.01742083 -47.41650391 1949.63891602 C-51.23323668 1952.60052544 -54.99231252 1955.61971958 -58.7199707 1958.69262695 C-68.21004703 1966.50583659 -78.03419779 1973.80736524 -88 1981 C-88.64888184 1981.47163574 -89.29776367 1981.94327148 -89.96630859 1982.42919922 C-135.17677861 2015.2350094 -183.34295188 2043.5163911 -233 2069 C-234.00482422 2069.51675293 -235.00964844 2070.03350586 -236.04492188 2070.56591797 C-289.2637663 2097.8384772 -345.10721877 2119.71949871 -402 2138 C-402.69631531 2138.22451843 -403.39263062 2138.44903687 -404.11004639 2138.68035889 C-419.42949959 2143.61913433 -434.80079295 2148.32491826 -450.3125 2152.625 C-451.54734131 2152.96821289 -452.78218262 2153.31142578 -454.05444336 2153.66503906 C-462.6157639 2156 -462.6157639 2156 -466 2156 C-466 2065.91 -466 1975.82 -466 1883 C-456.1 1879.37 -446.2 1875.74 -436 1872 C-429.91720169 1869.64403783 -423.85022253 1867.27733575 -417.8125 1864.8125 C-417.05915375 1864.50628723 -416.3058075 1864.20007446 -415.52963257 1863.88458252 C-381.86906898 1850.171068 -348.97642877 1834.60017684 -317.49072266 1816.42675781 C-315.29010005 1815.16617768 -313.07915201 1813.93021797 -310.85546875 1812.7109375 C-274.05154263 1792.51937416 -238.77138992 1767.86951051 -206.93359375 1740.5 C-204.20388975 1738.17375425 -201.42691249 1735.92573847 -198.625 1733.6875 C-193.35173913 1729.402493 -188.40618061 1724.80695987 -183.47705078 1720.13549805 C-180.45103541 1717.26984755 -177.39927031 1714.46592538 -174.234375 1711.75390625 C-169.40470323 1707.55693492 -164.89366565 1703.04397114 -160.3815918 1698.51196289 C-158.93974779 1697.06475615 -157.49262884 1695.62297974 -156.04492188 1694.18164062 C-151.35756143 1689.49764149 -146.79068932 1684.75601249 -142.4777832 1679.72290039 C-140.4192706 1677.32294608 -138.27033622 1675.0098084 -136.125 1672.6875 C-132.09163533 1668.25989668 -128.23541111 1663.73234735 -124.4765625 1659.0703125 C-122.63065683 1656.78185532 -120.77188292 1654.50788199 -118.8984375 1652.2421875 C-111.88395091 1643.73519076 -105.26540958 1635.07040641 -99 1626 C-98.50532227 1625.29004883 -98.01064453 1624.58009766 -97.50097656 1623.84863281 C-64.3214572 1576.2130521 -39.24226225 1525.35430857 -22 1470 C-21.64180176 1468.85337891 -21.28360352 1467.70675781 -20.91455078 1466.52539062 C-13.51633267 1442.45612509 -8.76315255 1417.64992027 -5.1875 1392.75 C-5.08822205 1392.06480286 -4.98894409 1391.37960571 -4.88665771 1390.67364502 C-1.9994733 1370.49987762 -0.70149645 1350.51879753 -0.73828697 1330.14702797 C-0.73509164 1327.81223622 -0.73102533 1325.47744553 -0.72617769 1323.14265662 C-0.71542386 1316.76257398 -0.71692519 1310.38254577 -0.72052841 1304.00245729 C-0.72305808 1297.76704603 -0.71414449 1291.53164486 -0.70654711 1285.29623942 C-0.69116536 1272.401216 -0.68510235 1259.5062036 -0.68421364 1246.61117172 C-0.68327518 1233.55546779 -0.67796521 1220.49977634 -0.66738319 1207.44407654 C-0.66638221 1206.20433985 -0.66638221 1206.20433985 -0.665361 1204.93955798 C-0.66193796 1200.72482198 -0.65844438 1196.51008604 -0.6549259 1192.29535011 C-0.6296427 1161.83645554 -0.61393334 1131.37756211 -0.60334396 1100.91865921 C-0.59283255 1070.76519014 -0.57819745 1040.61172764 -0.55806351 1010.4582634 C-0.55743952 1009.52095993 -0.55681554 1008.58365646 -0.55617265 1007.61794985 C-0.55047113 999.05681658 -0.54471899 990.49568334 -0.53890612 981.93455015 C-0.52445818 960.65487571 -0.51064497 939.37520088 -0.49726295 918.09552574 C-0.49665313 917.1266188 -0.49604331 916.15771186 -0.49541502 915.1594441 C-0.46582401 868.05600552 -0.44354702 820.95256387 -0.421875 773.84912109 C-0.41435257 757.50821937 -0.40679776 741.16731766 -0.39910889 724.82641602 C-0.39863204 723.81291762 -0.39815519 722.79941923 -0.39766389 721.75520876 C-0.3754417 674.61833971 -0.34801539 627.48147411 -0.31925117 580.34460865 C-0.3173833 577.28351463 -0.31551767 574.2224206 -0.3136525 571.16132657 C-0.30128807 550.87487466 -0.28883404 530.58842281 -0.27632002 510.30197099 C-0.25142215 469.93880888 -0.22705065 429.57564645 -0.20304088 389.2124838 C-0.20189754 387.29039232 -0.20075382 385.36830085 -0.19960973 383.44620937 C-0.14812499 296.94542466 -0.10276257 210.44463712 -0.06005859 123.94384766 C-0.05945889 122.72920334 -0.05945889 122.72920334 -0.05884706 121.49002076 C-0.03885731 80.99334735 -0.01921723 40.49667378 0 0 Z " fill="#C12F32" transform="translate(7125,0)"/>
<path d="M0 0 C145.86 0 291.72 0 442 0 C444.25000069 7.87500241 444.25000069 7.87500241 444.82381248 11.35328388 C444.95683386 12.14719058 445.08985523 12.94109728 445.22690755 13.75906175 C445.36539812 14.61098669 445.50388868 15.46291162 445.64657593 16.34065247 C445.80000007 17.26367836 445.95342422 18.18670425 446.11149758 19.13770062 C446.62429236 22.22894571 447.13122221 25.32112338 447.63818359 28.41333008 C448.00710043 30.64476027 448.37637772 32.8761309 448.74598598 35.10744667 C449.7558322 41.21032015 450.76056882 47.31402531 451.76444268 53.41788363 C452.72533918 59.2555255 453.6900553 65.09253513 454.65469847 70.92955885 C456.60578125 82.73633142 458.55305605 94.54372896 460.49807739 106.35150146 C462.42008053 118.01949707 464.34379731 129.68720802 466.26974487 141.35455322 C466.38959064 142.08058398 466.50943641 142.80661474 466.63291387 143.55464643 C467.11779894 146.49206518 467.60269637 149.42948189 468.08760991 152.36689594 C473.43718385 184.77253133 478.77964795 217.17933641 484.11934942 249.58659983 C485.98299795 260.8972148 487.84724209 272.20773153 489.71163392 283.518224 C494.41532927 312.05395973 499.11717305 340.58999987 503.81347656 369.12695312 C504.08544311 370.77952773 504.35741004 372.43210227 504.62937737 374.08467674 C504.83167448 375.31391064 504.83167448 375.31391064 505.0380584 376.56797755 C505.72197604 380.72370556 506.40590358 384.87943194 507.08984375 389.03515625 C507.22476872 389.85498505 507.35969369 390.67481385 507.49870729 391.51948595 C512.55505938 422.24215604 517.62168834 452.96312663 522.69140625 483.68359375 C522.97031783 485.37371944 522.97031783 485.37371944 523.25486398 487.09798908 C526.75216964 508.29066432 530.24984735 529.48327815 533.74856567 550.67572021 C535.76234801 562.87361046 537.77589956 575.07153877 539.7890625 587.26953125 C540.02731644 588.71311524 540.02731644 588.71311524 540.2703836 590.18586254 C545.87081198 624.12000257 551.44899824 658.05773866 557 692 C559.4248204 679.43489204 561.57023402 666.83205356 563.65991211 654.20751953 C564.01934111 652.04372693 564.37891411 649.87995825 564.7386179 647.71621132 C565.71525552 641.83870216 566.6897995 635.96084761 567.6639328 630.08292294 C568.70519212 623.80202023 569.74830228 617.52142487 570.7911377 611.24078369 C572.80870161 599.08760887 574.82432887 586.93411375 576.83920896 574.78049374 C578.47676837 564.90296722 580.11512972 555.02557398 581.75393677 545.14825439 C593.56870761 473.93747831 605.35000923 402.72129069 617.06237793 331.49359131 C618.70255153 321.51908407 620.34312945 311.54464342 621.984375 301.5703125 C622.12042869 300.74346561 622.25648237 299.91661872 622.3966589 299.06471586 C630.42915103 250.25198973 638.5272889 201.45011831 646.62377024 152.64797306 C647.18243752 149.2805149 647.741071 145.91305113 648.29969406 142.54558563 C650.59186881 128.72812829 652.88456335 114.9107573 655.17787838 101.09348917 C655.78662773 97.42568775 656.39531153 93.75787545 657.00398207 90.09006095 C661.9888248 60.05772256 666.99516232 30.02902607 672 0 C817.86 0 963.72 0 1114 0 C1117.46861256 42.7795549 1117.46861256 42.7795549 1118.84394103 62.19127893 C1118.94711689 63.64461626 1119.05031427 65.09795206 1119.15353046 66.55128652 C1119.23199732 67.65751827 1119.23199732 67.65751827 1119.31204937 68.78609813 C1119.59774851 72.80794157 1119.88560424 76.82963087 1120.17314929 80.85134268 C1120.67452389 87.86769744 1121.17460215 94.88414359 1121.673769 101.90065575 C1122.41758806 112.35601639 1123.16351796 122.81122575 1123.90983508 133.26640834 C1125.1737181 150.97302045 1126.43593119 168.67975123 1127.69718361 186.3865509 C1128.96381236 204.1687456 1130.23121779 221.95088468 1131.49957848 239.73295593 C1131.57958567 240.85464155 1131.65959286 241.97632717 1131.74202451 243.13200326 C1132.14920693 248.84057254 1132.5564021 254.54914092 1132.96360191 260.25770897 C1135.85730933 300.82518589 1138.7493341 341.39278261 1141.64038086 381.96044922 C1144.37260068 420.29937726 1147.10555108 458.6382531 1149.83959961 496.97705078 C1150.00598986 499.31031346 1150.17238 501.64357614 1150.33877005 503.97683883 C1151.66767914 522.61188651 1152.99663382 541.24693094 1154.32559785 559.8819747 C1155.49331088 576.25594822 1156.66098104 592.62992479 1157.82858276 609.00390625 C1157.95245609 610.74105018 1157.95245609 610.74105018 1158.0788319 612.51328793 C1160.49822533 646.44200402 1162.91630911 680.37081323 1165.33329408 714.29970098 C1166.75628384 734.27514615 1168.1794503 754.25057875 1169.60265191 774.22600883 C1169.85378725 777.75086538 1170.10491557 781.27572242 1170.35604277 784.80057955 C1175.16025097 852.2323837 1179.97690311 919.66328841 1184.80379212 987.09347275 C1186.14835678 1005.87688378 1187.49198064 1024.66036189 1188.83475399 1043.44390106 C1188.92181008 1044.66167228 1189.00886618 1045.87944349 1189.09856033 1047.13411687 C1189.96771372 1059.29226844 1190.8367551 1071.45042802 1191.70564048 1083.60859874 C1193.5568156 1109.51118338 1195.410423 1135.41359071 1197.26892065 1161.31565104 C1198.60407043 1179.92455754 1199.93573801 1198.5337105 1201.26379965 1217.14312422 C1202.05033343 1228.162723 1202.83969576 1239.18211079 1203.63309839 1250.20121719 C1204.16262835 1257.55928384 1204.68855632 1264.91760223 1205.21156778 1272.27613507 C1205.50926109 1276.46305343 1205.80851344 1280.64984386 1206.11220012 1284.83633214 C1206.3886563 1288.64782841 1206.66045896 1292.45962802 1206.92868209 1296.27171225 C1207.07075566 1298.27428045 1207.21768003 1300.27650275 1207.36485251 1302.27870268 C1207.44950942 1303.49471806 1207.53416634 1304.71073344 1207.62138861 1305.96359777 C1207.69507353 1306.99243396 1207.76875845 1308.02127014 1207.84467624 1309.08128318 C1208.08124375 1315.04972668 1208 1321.02687 1208 1327 C1096.13 1327 984.26 1327 869 1327 C864.12287243 1167.54105901 864.12287243 1167.54105901 862.7871488 1123.68431392 C862.71116879 1121.18963612 862.63518842 1118.69495832 862.55920209 1116.20028071 C860.00594322 1032.37506118 857.48068411 948.54900628 854.96484375 864.72265625 C854.91257689 862.98120703 854.86031 861.23975781 854.80804306 859.4983086 C853.55317062 817.68736768 852.29954564 775.8763894 851.04653855 734.06539254 C850.23915601 707.12423181 849.43138672 680.18308271 848.62329102 653.24194336 C848.59608769 652.33500619 848.56888436 651.42806902 848.54085669 650.4936489 C848.26731455 641.3739844 847.99376595 632.25432009 847.72021263 623.13465593 C847.16447636 604.60762961 846.60878287 586.080602 846.05311584 567.55357361 C846.02764716 566.70439966 846.00217848 565.85522571 845.97593803 564.98031921 C844.31656635 509.6535679 842.65818993 454.32678674 841 399 C839.28609155 409.7589698 837.57275166 420.51803 835.86005195 431.27719229 C835.06393015 436.27831805 834.26764411 441.27941752 833.4709177 446.28044701 C829.11207667 473.64183034 824.78901754 501.0085624 820.51171875 528.3828125 C820.24231139 530.10614964 820.24231139 530.10614964 819.96746147 531.86430168 C819.16413348 537.00350791 818.36191784 542.14288611 817.56105936 547.28247774 C817.01240178 550.80348325 816.46329818 554.32441918 815.91424614 557.8453632 C815.62047816 559.72924394 815.32672837 561.61312752 815.03299707 563.49701399 C813.30168222 574.60069259 811.56823496 585.70403825 809.8347168 596.80737305 C809.66973887 597.86407586 809.50476094 598.92077866 809.33478367 600.00950277 C808.48457856 605.45511125 807.6343422 610.90071485 806.78408623 616.34631538 C806.08660313 620.81350327 805.38918391 625.28070112 804.69182014 629.74790764 C798.95069764 666.52455245 793.20067125 703.29979925 787.4453125 740.07421875 C787.34327425 740.72620417 787.241236 741.3781896 787.13610569 742.04993215 C784.61217284 758.17686628 782.08795607 774.30375597 779.56363901 790.43062996 C775.44033687 816.77282272 771.31769499 843.11511882 767.1951665 869.45743266 C766.86309503 871.57931491 766.53102196 873.70119691 766.19894862 875.82307887 C755.93931042 941.38021855 745.68542477 1006.93825757 735.43406083 1072.49669159 C733.61786442 1084.11143581 731.80153277 1095.72615888 729.98512919 1107.3408707 C728.79370699 1114.95925543 727.60233797 1122.57764846 726.4111433 1130.19606876 C726.30544186 1130.87209406 726.19974042 1131.54811937 726.09083591 1132.24463028 C725.66656387 1134.95812191 725.24229416 1137.6716139 724.81803351 1140.38510732 C723.47419217 1148.98005137 722.12996799 1157.57493541 720.78537673 1166.16976219 C716.82391676 1191.49330106 712.86940921 1216.81788411 708.93898129 1242.14625748 C707.63670232 1250.53805401 706.33248901 1258.92955008 705.02833939 1267.32105607 C703.89890681 1274.59014932 702.7725146 1281.85970535 701.64844418 1289.12962961 C700.96527119 1293.54371412 700.27939302 1297.95737507 699.59275246 1302.37092137 C699.27583343 1304.41189596 698.96009663 1306.45305451 698.64560509 1308.49440455 C698.21901926 1311.26253678 697.78838006 1314.03000804 697.35668945 1316.79734802 C697.17069152 1318.01441573 697.17069152 1318.01441573 696.98093605 1319.25607067 C696.11408287 1324.77183427 696.11408287 1324.77183427 695 1327 C659.85625437 1327.02286524 624.71251023 1327.04049765 589.56875873 1327.05106533 C585.42417573 1327.05231611 581.27959274 1327.05361042 577.13500977 1327.05493164 C575.89728872 1327.05532511 575.89728872 1327.05532511 574.6345632 1327.05572652 C561.25599326 1327.06008345 547.87742759 1327.06797112 534.49886019 1327.0771528 C520.7816351 1327.08648871 507.06441226 1327.09205548 493.34718412 1327.09408849 C484.87597574 1327.09546385 476.40477945 1327.09981513 467.93357479 1327.10791647 C462.13259484 1327.11318316 456.33162117 1327.11480447 450.530639 1327.11350138 C447.17868602 1327.11285788 443.8267714 1327.11441527 440.47481918 1327.11920547 C436.84928945 1327.12413523 433.22381266 1327.12300095 429.59828186 1327.12025452 C428.52729297 1327.12316736 427.45630408 1327.1260802 426.35286099 1327.12908131 C425.38945276 1327.12709026 424.42604453 1327.12509921 423.43344212 1327.12304783 C422.59539935 1327.12342755 421.75735658 1327.12380727 420.89391857 1327.1241985 C419 1327 419 1327 418 1326 C417.58774513 1323.88601182 417.23425574 1321.76055897 416.90283203 1319.63240051 C416.79620841 1318.95515716 416.68958479 1318.2779138 416.57973015 1317.58014792 C416.21849579 1315.27904454 415.86320739 1312.9770608 415.5078125 1310.67504883 C415.24845672 1309.01497448 414.9887364 1307.35495705 414.72868156 1305.69499207 C414.00905719 1301.09467862 413.29459219 1296.49357594 412.5808692 1291.89234376 C411.80719765 1286.91072234 411.02871199 1281.92985319 410.25076294 1276.94889832 C408.88808587 1268.21999493 407.52834542 1259.49063808 406.17047119 1250.76098633 C403.96542352 1236.58543156 401.75437827 1222.41081541 399.54248047 1208.23632812 C398.77227469 1203.30020667 398.00211021 1198.36407877 397.23196411 1193.427948 C397.038639 1192.18888289 396.84531389 1190.94981779 396.64613044 1189.67320526 C395.24348364 1180.68280246 393.84165573 1171.69227219 392.44015503 1162.70169067 C386.70422219 1125.90726511 380.95464208 1089.11499061 375.1953125 1052.32421875 C374.9886383 1051.00394845 374.7819646 1049.68367807 374.5752914 1048.36340761 C372.69615778 1036.35917026 370.81686751 1024.35495744 368.93738461 1012.35077477 C364.41482036 983.46528116 359.89424838 954.57947587 355.37412524 925.69360018 C354.93447145 922.88399069 354.49481308 920.07438192 354.05515027 917.26477385 C343.2602817 848.28156636 332.47330951 779.2971244 321.6875 710.3125 C321.57450406 709.58979304 321.46150812 708.86708608 321.34508806 708.1224789 C319.65298302 697.29999705 317.96088934 686.47751342 316.26879883 675.6550293 C315.93512267 673.52086212 315.60144649 671.38669495 315.26777029 669.25252778 C315.04627202 667.83584189 314.82477375 666.41915599 314.6032755 665.00247009 C313.72536409 659.38741605 312.84745157 653.77236218 311.9695386 648.15730838 C311.42757038 644.6909264 310.88560321 641.22454426 310.34363818 637.75816178 C301.82108763 583.24833925 293.29590566 528.73892852 284.76886415 474.22980833 C284.31295808 471.3154283 283.85705377 468.40104799 283.40114975 465.48666763 C282.52289086 459.87237722 281.64462624 454.25808769 280.76635742 448.64379883 C280.63876435 447.82816636 280.51117128 447.0125339 280.37971175 446.1721853 C277.91991641 430.44810655 275.45995779 414.72405334 273 399 C270.67849419 469.28447534 268.43589551 539.57125933 266.25097656 609.86010742 C266.20540195 611.32616476 266.20540195 611.32616476 266.15890663 612.82183942 C265.38711429 637.65047915 264.61692545 662.47916854 263.84736759 687.30787762 C263.33731319 703.76407029 262.82682111 720.22024934 262.31594086 736.6764164 C262.26436529 738.33774767 262.26436529 738.33774767 262.21174779 740.03264119 C262.03698783 745.6618756 261.86222116 751.2911098 261.68745193 756.92034391 C260.46327374 796.35092622 259.23992198 835.78153413 258.01708984 875.2121582 C256.83230263 913.41594772 255.64712011 951.61972495 254.46142578 989.82348633 C254.42460049 991.01002362 254.3877752 992.19656091 254.34983398 993.41905387 C253.97987455 1005.3393978 253.60990734 1017.25974149 253.23993443 1029.180085 C252.48687656 1053.44324151 251.7338705 1077.70639962 250.980896 1101.96955872 C250.9290139 1103.64135659 250.9290139 1103.64135659 250.87608368 1105.34692817 C249.82018483 1139.37126785 248.76450467 1173.39561432 247.70904541 1207.41996765 C247.67919692 1208.38217695 247.64934842 1209.34438625 247.61859543 1210.3357534 C246.41225989 1249.22383135 245.2061594 1288.11191659 244 1327 C132.13 1327 20.26 1327 -95 1327 C-88.0827566 1226.69997072 -88.0827566 1226.69997072 -85.43859603 1189.74480793 C-85.0210714 1183.90580916 -84.60483793 1178.06671828 -84.18840313 1172.2276417 C-83.46652074 1162.10795515 -82.74390313 1151.98832133 -82.02073288 1141.86872673 C-81.24872051 1131.06562364 -80.47718584 1120.26248663 -79.70619583 1109.45931053 C-79.65661141 1108.76453312 -79.60702699 1108.06975572 -79.55594002 1107.35392445 C-79.30287743 1103.80797831 -79.0498224 1100.26203164 -78.79677013 1096.71608476 C-76.98633096 1071.3471358 -75.17491126 1045.97825693 -73.36294556 1020.60941696 C-71.56992434 995.50575791 -69.77738389 970.4020646 -67.98544312 945.2983284 C-67.92927588 944.51147033 -67.87310865 943.72461227 -67.81523938 942.91391002 C-67.24464321 934.92030533 -66.67405645 926.92669997 -66.10347583 918.93309418 C-64.8855639 901.87064284 -63.66758317 884.80819642 -62.4495697 867.74575233 C-62.39154209 866.93287616 -62.33351447 866.11999998 -62.27372844 865.28249119 C-59.52454133 826.77074861 -56.77465354 788.25905607 -54.024659 749.74737114 C-53.72133974 745.49960411 -53.41802092 741.25183706 -53.11470211 737.00407 C-53.05459053 736.16224953 -52.99447895 735.32042907 -52.93254581 734.45309889 C-52.26358142 725.08471989 -51.59461906 715.71634075 -50.92565918 706.34796143 C-50.86537174 705.50367274 -50.8050843 704.65938405 -50.74296997 703.78951086 C-47.94142028 664.5554935 -45.14022837 625.32145059 -42.3391619 586.08739873 C-42.15727955 583.53980474 -41.97539695 580.99221076 -41.7935143 578.44461679 C-39.10432767 540.77769869 -36.41523641 503.11077377 -33.72627156 465.44383983 C-33.55057095 462.98263167 -33.37487016 460.52142351 -33.19916932 458.06021536 C-32.15565714 443.44275015 -31.11214532 428.82528491 -30.06865036 414.20781846 C-27.42679705 377.20027723 -24.78467917 340.19275492 -22.14199267 303.18527317 C-21.01323584 287.37845437 -19.88451372 271.5716331 -18.75596619 255.76479936 C-18.70408676 255.03815818 -18.65220733 254.311517 -18.59875579 253.56285639 C-18.08261511 246.33359161 -17.56648558 239.10432604 -17.05037072 231.87505943 C-16.79818446 228.34266855 -16.54599528 224.81027788 -16.29380417 221.27788734 C-16.24439173 220.58577662 -16.1949793 219.8936659 -16.14406952 219.18058213 C-15.33024657 207.78161782 -14.51615423 196.38267276 -13.7019776 184.9837337 C-12.98822195 174.99048105 -12.27473083 164.99720953 -11.56142356 155.00392486 C-11.13925178 149.08953733 -10.71695623 143.17515869 -10.29434586 137.26080248 C-8.65479004 114.31457404 -7.02116578 91.36798456 -5.41885109 68.41912179 C-5.20350958 65.33598543 -4.98782838 62.25287302 -4.77202266 59.16976912 C-4.6329376 57.18238608 -4.49385577 55.19500281 -4.35477734 53.20761931 C-4.25361205 51.76218473 -4.25361205 51.76218473 -4.15040302 50.28754946 C-3.76077197 44.71628438 -3.37384116 39.14484032 -2.98909971 33.57323555 C-2.75703048 30.22030501 -2.52267046 26.86753744 -2.28770043 23.51480907 C-2.18079356 21.98195923 -2.07489724 20.44903852 -1.9701073 18.91604251 C-1.827892 16.83679244 -1.68214814 14.75781809 -1.53555584 12.6788727 C-1.45565841 11.52525466 -1.37576099 10.37163661 -1.29344243 9.18306044 C-1.00966861 6.10487837 -0.50819587 3.04917521 0 0 Z " fill="#BF2F32" transform="translate(9061,3196)"/>
<path d="M0 0 C91.66317402 -2.23705123 185.20068126 24.40166444 261.57666016 75.06640625 C262.61959229 75.75814941 262.61959229 75.75814941 263.68359375 76.46386719 C282.82831906 89.24515975 301.33074145 103.22810591 318.21728516 118.890625 C320.21583096 120.73365482 322.24981509 122.50101351 324.32666016 124.25390625 C333.02438563 131.81714579 341.36423241 140.18995746 348.79150391 149.00390625 C350.72511635 151.23792675 352.74262658 153.38400246 354.76904297 155.53369141 C360.97084007 162.1340366 366.65463757 169.00322105 372.14501953 176.20214844 C373.6106872 178.11071568 375.09904448 179.99966684 376.59228516 181.88671875 C408.82601053 222.89640702 432.99160354 269.71861615 449.57666016 319.06640625 C449.91648926 320.06720215 450.25631836 321.06799805 450.60644531 322.09912109 C460.8501062 352.61455087 466.82552151 384.15163842 470.57666016 416.06640625 C470.7079834 417.15872559 470.83930664 418.25104492 470.97460938 419.37646484 C474.51474776 450.34398675 474.16916788 483.12495728 470.57666016 514.06640625 C470.38330078 515.78609619 470.38330078 515.78609619 470.18603516 517.54052734 C463.06725087 579.34376915 445.44369707 637.55217335 417.57666016 693.06640625 C417.04927246 694.11844238 416.52188477 695.17047852 415.97851562 696.25439453 C397.91166163 732.08943196 375.75668786 765.81628156 350.57666016 797.06640625 C349.45710938 798.46052734 349.45710938 798.46052734 348.31494141 799.8828125 C340.06047875 810.06381042 331.5213134 820.01985125 322.70556641 829.71875 C321.28577818 831.28442473 319.87686431 832.86002948 318.47900391 834.4453125 C313.55110725 840.01714483 308.40936192 845.31412902 303.09326172 850.51293945 C300.00919774 853.54754913 297.26662061 856.66856147 294.57666016 860.06640625 C292.9213202 861.41377598 291.25653243 862.74974961 289.57666016 864.06640625 C289.24666016 864.72640625 288.91666016 865.38640625 288.57666016 866.06640625 C289.45700928 866.34315186 290.3373584 866.61989746 291.24438477 866.9050293 C327.94202365 879.69502623 364.48065008 908.37273598 392.77587891 934.51171875 C394.92781826 936.47457556 397.10344823 938.38293987 399.31103516 940.28125 C404.12731387 944.48322771 408.63199134 948.97515482 413.13916016 953.50390625 C414.35635742 954.71530273 414.35635742 954.71530273 415.59814453 955.95117188 C420.46652088 960.82740678 425.09639844 965.83349966 429.57666016 971.06640625 C430.50214397 972.11469556 431.42914485 973.16164817 432.35791016 974.20703125 C450.38078667 994.71389312 465.97425217 1017.41676509 479.57666016 1041.06640625 C479.95177734 1041.70980957 480.32689453 1042.35321289 480.71337891 1043.01611328 C516.56828002 1104.70500668 535.73572512 1174.54400386 539.76416016 1245.56640625 C539.80713226 1246.3130957 539.85010437 1247.05978516 539.89437866 1247.82910156 C540.49874092 1258.58280657 540.70595429 1269.29707745 540.57666016 1280.06640625 C540.56901642 1280.73393921 540.56137268 1281.40147217 540.55349731 1282.0892334 C539.7565041 1344.78093015 528.85594313 1406.39331156 503.57666016 1464.06640625 C503.17656738 1464.98180176 502.77647461 1465.89719727 502.36425781 1466.84033203 C480.61962511 1516.18863602 451.10001006 1560.69432776 415.38867188 1601.01879883 C414.20701816 1602.35408982 413.03071384 1603.69413966 411.8605957 1605.03955078 C404.97085445 1612.85198692 397.61159211 1620.18304548 390.23803711 1627.53540039 C388.01186153 1629.75619932 385.79110384 1631.98231591 383.57080078 1634.20898438 C382.13427245 1635.64485209 380.69743404 1637.08040968 379.26025391 1638.515625 C378.60794296 1639.16996017 377.95563202 1639.82429535 377.28355408 1640.49845886 C372.87500646 1644.88498467 368.29499878 1649.01656699 363.57666016 1653.06640625 C362.45887004 1654.03967292 361.34157968 1655.01351429 360.22509766 1655.98828125 C352.85146926 1662.37571331 345.34418741 1668.54180937 337.61425781 1674.49267578 C335.35816912 1676.23515694 333.11443868 1677.99301593 330.86962891 1679.75 C318.72033043 1689.19685912 306.1883082 1697.89813688 293.29345703 1706.29443359 C290.8951443 1707.85868178 288.50722607 1709.43704633 286.12353516 1711.0234375 C216.27579044 1757.26102885 136.50619374 1789.24849801 -108.42333984 1834.06640625 C-109.42042969 1834.12425293 -110.41751953 1834.18209961 -111.44482422 1834.24169922 C-197.37726871 1839.06502264 -284.49726016 1830.93722355 -554.98095703 1736.47705078 C-557.79261793 1734.85312269 -560.63283933 1733.28731458 -563.47998047 1731.72680664 C-581.78183278 1721.65176048 -599.41838715 1710.19191524 -616.42333984 1698.06640625 C-617.11067192 1697.67243831 -617.79800399 1697.27847038 -618.50616431 1696.87256402 C-620.42333984 1695.06640625 -620.42333984 1695.06640625 -620.92013383 1692.30212384 C-620.91861495 1691.17017754 -620.91709607 1690.03823124 -620.91553116 1688.87198353 C-620.92349535 1687.56670383 -620.93145955 1686.26142414 -620.93966508 1684.91659051 C-620.92825204 1683.45943092 -620.91646964 1682.00227419 -620.90435791 1680.54512024 C-620.90610115 1679.00397766 -620.9096015 1677.46283622 -620.91471457 1675.92170113 C-620.92368712 1671.67554138 -620.90761993 1667.42978282 -620.88760233 1663.18367422 C-620.87037433 1658.60904194 -620.87617072 1654.03443341 -620.87921143 1649.45977783 C-620.88131174 1641.53017604 -620.86873138 1633.60070561 -620.84626007 1625.67113686 C-620.81379124 1614.20624676 -620.8033383 1602.74142037 -620.7983081 1591.27648928 C-620.78954741 1572.67672179 -620.76291083 1554.07702436 -620.72509766 1535.47729492 C-620.6883976 1517.40633495 -620.66007603 1499.33539399 -620.64306641 1481.2644043 C-620.64149007 1479.59436253 -620.64149007 1479.59436253 -620.63988188 1477.89058254 C-620.63466184 1472.30533598 -620.62960698 1466.72008929 -620.62463427 1461.13484251 C-620.58314811 1414.77864856 -620.51267862 1368.42253101 -620.42333984 1322.06640625 C-617.12470497 1325.30469202 -614.40228424 1328.34956882 -611.92333984 1332.25390625 C-599.83412244 1350.7499561 -586.31920719 1368.39148286 -571.91552734 1385.140625 C-569.62964995 1387.82420206 -567.42863716 1390.55679151 -565.23583984 1393.31640625 C-554.83036113 1406.03623838 -543.01592748 1417.5660784 -531.42333984 1429.19140625 C-530.88708984 1429.73033508 -530.35083984 1430.26926392 -529.79833984 1430.82452393 C-523.85391295 1436.79148828 -517.85211099 1442.61650884 -511.42333984 1448.06640625 C-510.33990776 1449.01533006 -509.25782723 1449.96579971 -508.17724609 1450.91796875 C-499.23399481 1458.71896595 -489.94319149 1465.98430911 -480.42333984 1473.06640625 C-479.33230957 1473.88093262 -479.33230957 1473.88093262 -478.21923828 1474.71191406 C-466.97105029 1483.07722577 -455.41103247 1490.80174029 -443.42333984 1498.06640625 C-442.68067871 1498.51693359 -441.93801758 1498.96746094 -441.17285156 1499.43164062 C-380.26052067 1536.10485237 -312.71075392 1557.79990285 -242.42333984 1567.06640625 C-241.37259277 1567.20530273 -240.3218457 1567.34419922 -239.23925781 1567.48730469 C-195.14067776 1573.16065009 -149.69087152 1574.4134247 -105.42333984 1570.06640625 C-104.77504211 1570.00324219 -104.12674438 1569.94007812 -103.45880127 1569.875 C-14.59408349 1561.14184013 76.97573329 1536.67591107 173.57666016 1471.06640625 C174.93404297 1469.99712891 174.93404297 1469.99712891 176.31884766 1468.90625 C182.36846205 1464.047707 188.10754582 1458.91119755 193.78759766 1453.6328125 C196.11476861 1451.4914241 198.47724631 1449.42297996 200.88916016 1447.37890625 C204.06200163 1444.61483576 206.83503475 1441.67766694 209.54931641 1438.46484375 C211.09754731 1436.63321798 212.66566943 1434.83347676 214.26025391 1433.04296875 C226.73891641 1418.93368937 236.93611866 1403.79292032 245.57666016 1387.06640625 C246.15843018 1385.95773193 246.15843018 1385.95773193 246.75195312 1384.82666016 C256.78259288 1365.52661578 263.3405435 1344.56856073 266.57666016 1323.06640625 C266.75253662 1321.90206055 266.92841309 1320.73771484 267.10961914 1319.53808594 C268.5048902 1309.47525954 268.93975207 1299.59374217 268.88916016 1289.44140625 C268.887005 1288.65682037 268.88484985 1287.8722345 268.88262939 1287.06387329 C268.691521 1243.51049182 255.01528173 1202.79118474 228.57666016 1168.06640625 C227.84447266 1167.1021875 227.11228516 1166.13796875 226.35791016 1165.14453125 C213.18156692 1148.30809267 197.65102098 1131.9745267 180.57666016 1119.06640625 C179.41236698 1118.14124859 178.24973796 1117.21399447 177.08837891 1116.28515625 C144.89932036 1090.79929471 108.6645561 1070.83741278 72.29931641 1052.05078125 C68.38511812 1050.02353398 64.50283001 1047.94682365 60.63525391 1045.83203125 C59.20258179 1045.05678101 59.20258179 1045.05678101 57.7409668 1044.26586914 C55.92532111 1043.28168588 54.11552748 1042.28660331 52.31274414 1041.27905273 C51.5000708 1040.84149658 50.68739746 1040.40394043 49.85009766 1039.953125 C49.14288574 1039.56342529 48.43567383 1039.17372559 47.70703125 1038.7722168 C44.03067077 1037.55420647 41.43064552 1038.6557179 38.03833008 1040.28710938 C37.13703369 1040.80208984 36.2357373 1041.31707031 35.30712891 1041.84765625 C34.27128662 1042.43305176 33.23544434 1043.01844727 32.16821289 1043.62158203 C31.04487549 1044.26337402 29.92153809 1044.90516602 28.76416016 1045.56640625 C26.30333394 1046.95407281 23.83862149 1048.33476201 21.37353516 1049.71484375 C20.73322861 1050.07383759 20.09292206 1050.43283142 19.43321228 1050.80270386 C-16.97066083 1071.17596948 -54.34655059 1089.86983686 -92.63574219 1106.42236328 C-95.93671114 1107.85094992 -99.22340333 1109.30944831 -102.50537109 1110.78125 C-177.04424009 1144.07051782 -256.61905491 1167.22894372 -472.48583984 1191.62890625 C-473.25725311 1191.64975281 -474.02866638 1191.67059937 -474.82345581 1191.69207764 C-502.39616173 1192.41440319 -529.97420285 1192.26481184 -557.54833984 1191.69140625 C-558.35280548 1191.67611877 -559.15727112 1191.6608313 -559.9861145 1191.64508057 C-580.15408315 1191.24650514 -600.27043337 1190.04947486 -620.42333984 1189.06640625 C-620.42333984 1102.60640625 -620.42333984 1016.14640625 -620.42333984 927.06640625 C-609.19233048 927.06640625 -609.19233048 927.06640625 -604.31396484 927.46875 C-602.68394531 927.59733398 -602.68394531 927.59733398 -601.02099609 927.72851562 C-599.91626953 927.81939453 -598.81154297 927.91027344 -597.67333984 928.00390625 C-577.89638449 929.62990441 -558.13926583 930.27562153 -538.29833984 930.25390625 C-537.26219543 930.253302 -536.22605103 930.25269775 -535.1585083 930.2520752 C-515.85686204 930.22182703 -496.66160393 929.64436363 -477.42333984 928.06640625 C-476.68094055 928.00559875 -475.93854126 927.94479126 -475.17364502 927.88214111 C-436.13749054 924.62642994 -397.52982368 918.08178843 -359.42333984 909.06640625 C-358.70760803 908.89751892 -357.99187622 908.72863159 -357.25445557 908.55462646 C-316.00720267 898.77984726 -274.60979786 886.30878838 -235.42333984 870.06640625 C-238.5913074 866.81938068 -241.81901596 863.83627388 -245.36083984 861.00390625 C-255.57824993 852.72026103 -265.48470948 844.12937767 -275.09521484 835.1484375 C-276.89558746 833.46615898 -278.71217158 831.81075002 -280.55737305 830.17749023 C-287.39561972 824.12075747 -293.88374858 817.75947254 -300.32885742 811.29125977 C-302.11508655 809.49964675 -303.90663332 807.7134757 -305.69873047 805.92773438 C-311.48898498 800.1408422 -317.11702634 794.30557542 -322.42333984 788.06640625 C-324.04301801 786.29070404 -325.66745702 784.51932318 -327.29833984 782.75390625 C-331.33613307 778.32144151 -335.19641419 773.78898448 -338.95849609 769.12109375 C-340.76419159 766.88329045 -342.58313297 764.66158726 -344.41943359 762.44921875 C-371.37024335 729.86689651 -393.48128479 693.78967593 -412.42333984 656.06640625 C-412.82391602 655.27459961 -413.22449219 654.48279297 -413.63720703 653.66699219 C-440.00585598 601.19702621 -456.38727185 539.42893043 -456.62646484 480.55078125 C-456.63352448 479.38908417 -456.64058411 478.22738708 -456.64785767 477.03048706 C-456.87834772 427.91973053 -456.87834772 427.91973053 -453.42333984 404.06640625 C-453.32859375 403.39871216 -453.23384766 402.73101807 -453.13623047 402.04309082 C-444.08724629 338.54864585 -422.86704851 277.86247652 -389.42333984 223.06640625 C-388.96475586 222.30553711 -388.50617188 221.54466797 -388.03369141 220.76074219 C-368.83376215 188.91589359 -344.90845481 160.36252286 -318.66210938 134.11987305 C-316.91945667 132.37501817 -315.18500822 130.62226882 -313.45068359 128.86914062 C-307.48058473 122.86950382 -301.43596654 117.23013052 -294.8046875 111.9597168 C-292.79207143 110.35956941 -290.8434992 108.72381092 -288.91943359 107.01953125 C-269.39608709 89.73287642 -247.07749618 74.93285335 -224.42333984 62.06640625 C-223.63975098 61.62119629 -222.85616211 61.17598633 -222.04882812 60.71728516 C-153.62656251 22.11307996 -78.41125632 2.14868645 0 0 Z M-142.42333984 328.06640625 C-145.546992 331.64194298 -148.50770913 335.31979676 -151.42333984 339.06640625 C-151.84341309 339.59943359 -152.26348633 340.13246094 -152.69628906 340.68164062 C-171.04783691 364.11609772 -183.45852174 391.1827176 -190.42333984 420.06640625 C-190.58914551 420.75041504 -190.75495117 421.43442383 -190.92578125 422.13916016 C-200.6459362 463.76564542 -195.17875455 509.80404106 -174.40722656 547.2734375 C-173.37942904 549.14642633 -172.3997275 551.03915858 -171.42724609 552.94140625 C-167.26776799 561.02809704 -162.65232416 568.6129369 -157.42333984 576.06640625 C-156.64329258 577.19915034 -155.86334834 578.33196539 -155.08349609 579.46484375 C-149.77997324 587.09573575 -144.0774406 594.2190526 -137.97607422 601.2265625 C-136.83159999 602.58265649 -135.71734295 603.96439146 -134.62060547 605.359375 C-128.31152464 613.33623731 -121.31094591 620.48426325 -114.10400391 627.64648438 C-112.05185444 629.68791002 -110.01062564 631.73981764 -107.97021484 633.79296875 C-101.45984007 640.30955261 -94.93648603 646.57910832 -87.68310547 652.27197266 C-85.46255201 654.03526867 -83.37711989 655.88923728 -81.29833984 657.81640625 C-75.087358 663.3886701 -68.38343267 668.33893989 -61.71484375 673.34423828 C-59.52174222 674.99245245 -57.33769276 676.65210497 -55.15380859 678.3125 C-26.36763257 700.01989658 4.52070059 718.83056412 35.57666016 737.06640625 C40.93153797 733.57095503 46.14454972 729.99792568 51.13916016 726.00390625 C51.72503906 725.53911865 52.31091797 725.07433105 52.91455078 724.59545898 C54.80605875 723.09087302 56.69205852 721.57963191 58.57666016 720.06640625 C59.22618652 719.54594727 59.87571289 719.02548828 60.54492188 718.48925781 C67.69372671 712.75133229 74.78737313 706.95021153 81.76416016 701.00390625 C82.26109375 700.58246338 82.75802734 700.16102051 83.27001953 699.72680664 C93.7981789 690.681887 103.78857686 681.04118378 113.59863281 671.22973633 C115.33461971 669.49595682 117.07851126 667.77039087 118.82275391 666.04492188 C125.54214592 659.3587336 131.68463979 652.50087668 137.57666016 645.06640625 C138.51116054 643.96434132 139.45252557 642.86800653 140.40478516 641.78125 C176.07358983 600.87718529 203.18040642 548.3096362 209.57666016 494.06640625 C209.66947266 493.3590332 209.76228516 492.65166016 209.85791016 491.92285156 C210.84531716 483.5827888 210.82028127 475.20280293 210.82666016 466.81640625 C210.8273349 466.01783203 210.82800964 465.21925781 210.82870483 464.39648438 C210.81133257 451.4182693 210.18026206 438.81790533 207.57666016 426.06640625 C207.41037109 425.24398437 207.24408203 424.4215625 207.07275391 423.57421875 C198.06027116 380.71485634 175.1771228 340.40642975 141.57666016 312.06640625 C141.04089355 311.61297852 140.50512695 311.15955078 139.953125 310.69238281 C130.35850786 302.62999614 120.31297721 295.52879373 109.57666016 289.06640625 C108.6654541 288.51774902 108.6654541 288.51774902 107.73583984 287.95800781 C84.37322356 274.15812632 57.37352171 266.37319693 30.57666016 263.06640625 C29.03751953 262.86917969 29.03751953 262.86917969 27.46728516 262.66796875 C-35.46524226 256.09027521 -99.81687621 281.59394969 -142.42333984 328.06640625 Z " fill="#C82F33" transform="translate(6516.42333984375,29.93359375)"/>
<path d="M0 0 C122.43 0 244.86 0 371 0 C371 157.08 371 314.16 371 476 C422.81 476 474.62 476 528 476 C528 318.92 528 161.84 528 0 C650.43 0 772.86 0 899 0 C899 437.91 899 875.82 899 1327 C776.57 1327 654.14 1327 528 1327 C528 1155.73 528 984.46 528 808 C476.19 808 424.38 808 371 808 C371 979.27 371 1150.54 371 1327 C248.57 1327 126.14 1327 0 1327 C0 889.09 0 451.18 0 0 Z " fill="#BF2F32" transform="translate(856,3196)"/>
<path d="M0 0 C512.56149874 0 512.56149874 0 579 15 C579.97978821 15.2204599 579.97978821 15.2204599 580.97937012 15.44537354 C610.92888803 22.23085532 640.71732359 31.84002898 668.55615234 44.85888672 C670.96137909 45.98196662 673.37892955 47.07347243 675.80078125 48.16015625 C701.83107573 59.98206876 726.57051564 75.27926957 749 93 C749.804375 93.62519531 750.60875 94.25039062 751.4375 94.89453125 C761.12092319 102.51401969 770.70106538 110.40923995 779.2734375 119.2734375 C780.96341959 120.96341959 782.71867384 122.48107713 784.5625 124 C787.69381835 126.63283494 790.30011493 129.51502987 792.94140625 132.6328125 C794.937497 134.92812749 797.01244679 137.13229703 799.10913086 139.33544922 C806.73978164 147.39992504 813.41012914 156.07684262 820 165 C820.66080566 165.88292725 820.66080566 165.88292725 821.33496094 166.78369141 C868.3819563 229.71501581 891.87639857 310.78700848 893 389 C893.00988953 389.6276123 893.01977905 390.25522461 893.02996826 390.90185547 C894.48661539 486.45790718 871.9683326 577.43884571 801.078125 651.99267578 C793.90268882 659.37496199 786.72435366 666.57836338 778.6171875 672.94140625 C775.80042107 675.15698224 773.09504877 677.47945004 770.375 679.8125 C741.50273479 703.86035071 706.1355502 725.43785423 671 739 C672.84929902 744.85757154 674.96548113 750.4662555 677.52734375 756.046875 C677.86794327 756.79894226 678.20854279 757.55100952 678.5594635 758.3258667 C679.2958085 759.9507685 680.03410389 761.57478762 680.77416992 763.19799805 C682.80535912 767.65382611 684.82148884 772.11647261 686.83984375 776.578125 C687.26268646 777.51180908 687.68552917 778.44549316 688.1211853 779.4074707 C692.80022931 789.7482364 697.40039092 800.1237258 702 810.5 C708.74470396 825.70629208 715.53589117 840.89068176 722.37402344 856.05517578 C727.95026275 868.42273886 733.48137606 880.80947082 738.98059082 893.2114563 C744.27967522 905.15944474 749.62843254 917.08443606 755 929 C760.80629111 941.88023707 766.58223465 954.77325215 772.3125 967.6875 C777.00296566 978.25810513 781.70295239 988.82403853 786.4375 999.375 C786.95731445 1000.53346436 787.47712891 1001.69192871 788.01269531 1002.88549805 C788.81934973 1004.68304125 789.62600502 1006.48058406 790.43273926 1008.27809143 C793.98042664 1016.1834087 797.52267006 1024.09116152 801.0625 1032 C801.59218384 1033.18335937 801.59218384 1033.18335937 802.13256836 1034.390625 C808.51839137 1048.66023358 814.86503075 1062.94710332 821.20742798 1077.23605347 C827.55287501 1091.52859099 833.94564787 1105.79909117 840.37374878 1120.05462646 C845.9500847 1132.42237065 851.48129303 1144.80928356 856.98059082 1157.2114563 C862.27967522 1169.15944474 867.62843254 1181.08443606 873 1193 C878.80629111 1205.88023707 884.58223465 1218.77325215 890.3125 1231.6875 C896.2981718 1245.17702913 902.31684113 1258.65114245 908.36022949 1272.11494446 C911.88655244 1279.97285689 915.40333811 1287.83503997 918.92044067 1295.69708252 C919.67272349 1297.3787079 920.42506178 1299.06030845 921.17745972 1300.74188232 C921.53647369 1301.54426331 921.89548767 1302.34664429 922.26538086 1303.17333984 C922.61441971 1303.95337372 922.96345856 1304.73340759 923.32307434 1305.53707886 C923.99579598 1307.04133763 924.66800299 1308.54582667 925.33964539 1310.05056763 C926.67808527 1313.04912028 928.02057019 1316.0451367 929.38232422 1319.03320312 C932 1324.79415552 932 1324.79415552 932 1327 C801.98 1327 671.96 1327 538 1327 C523.72557825 1284.17673474 523.72557825 1284.17673474 517.25 1264.375 C516.68090408 1262.63653305 516.68090408 1262.63653305 516.10031128 1260.86294556 C510.53251565 1243.84920696 505.0538232 1226.80891248 499.62805176 1209.74945068 C492.44978974 1187.2051212 485.01858757 1164.74483082 477.60144806 1142.27828217 C470.62650645 1121.15013978 463.66731937 1100.02029514 456.9375 1078.8125 C450.07122163 1057.17804949 442.98176216 1035.61884541 435.875 1014.0625 C435.29781904 1012.31158513 434.72064008 1010.56066961 434.14346313 1008.80975342 C433.00823184 1005.3660832 431.87294968 1001.92242975 430.73762512 998.47879028 C430.46267527 997.64481846 430.18772541 996.81084663 429.90444374 995.95160294 C429.35484634 994.28463033 428.80522361 992.61766608 428.25557518 990.9507103 C424.02489673 978.11964434 419.80464865 965.28529897 415.625 952.4375 C415.36634155 951.64242035 415.10768311 950.8473407 414.84118652 950.02816772 C411.30405944 939.14801661 407.79196967 928.25978884 404.28125 917.37109375 C403.96499224 916.39029626 403.96499224 916.39029626 403.64234543 915.38968468 C401.36055025 908.31311304 399.08006324 901.23612666 396.80322266 894.15795898 C388.94227255 869.74734036 380.96057866 845.37927213 373 821 C372.67 987.98 372.34 1154.96 372 1327 C249.24 1327 126.48 1327 0 1327 C0 889.09 0 451.18 0 0 Z M372 276 C372 379.95 372 483.9 372 591 C411.2124632 591 450.81003862 581.860663 479.625 553.875 C510.25588495 522.94039013 515.95669238 474.96636505 516.25 433.5 C515.92969964 388.2175365 508.46095119 339.28291479 475 306 C445.41890926 279.08925163 410.63902496 276 372 276 Z " fill="#BF2F32" transform="translate(7211,3196)"/>
<path d="M0 0 C569.04989605 0 569.04989605 0 668 45 C669.0405957 45.47018555 670.08119141 45.94037109 671.15332031 46.42480469 C691.31232958 55.6060741 710.8873722 66.20075868 729 79 C730.10934836 79.77217369 731.218725 80.54430676 732.328125 81.31640625 C761.13523359 101.50456867 788.306058 125.21143884 810 153 C810.48823242 153.62100586 810.97646484 154.24201172 811.47949219 154.88183594 C819.12341795 164.62609875 826.36970029 174.53735315 833 185 C833.36512695 185.57331055 833.73025391 186.14662109 834.10644531 186.73730469 C866.69169459 238.31843919 883.48354989 296.70132356 890 357 C890.12004395 358.11052734 890.24008789 359.22105469 890.36376953 360.36523438 C899.80264959 452.92533986 882.64567438 550.69326484 824 625 C823.29875 625.89332031 822.5975 626.78664063 821.875 627.70703125 C807.82346744 645.24635493 791.79345681 662.24819981 774 676 C772.89843556 676.89916042 771.79965325 677.80173602 770.703125 678.70703125 C740.29208813 703.70759214 705.75040284 722.76356881 670 739 C672.32517115 746.75629049 675.62270579 753.96728101 679.03311157 761.2883606 C680.84198164 765.17471506 682.63285048 769.06932149 684.421875 772.96484375 C684.79782303 773.78343369 685.17377106 774.60202362 685.56111145 775.44541931 C689.75388138 784.60338926 693.78493664 793.83099976 697.8125 803.0625 C703.90020668 817.00462717 710.08370357 830.89854018 716.375 844.75 C723.00385947 859.34600905 729.56487431 873.97008194 736.0625 888.625 C742.41715591 902.95628291 748.80533146 917.27145755 755.25 931.5625 C761.20160641 944.76068518 767.11189424 957.97620491 772.98059082 971.2114563 C778.27967522 983.15944474 783.62843254 995.08443606 789 1007 C794.80629111 1019.88023707 800.58223465 1032.77325215 806.3125 1045.6875 C811.00296566 1056.25810513 815.70295239 1066.82403853 820.4375 1077.375 C820.95731445 1078.53346436 821.47712891 1079.69192871 822.01269531 1080.88549805 C822.81934973 1082.68304125 823.62600502 1084.48058406 824.43273926 1086.27809143 C827.98042664 1094.1834087 831.52267006 1102.09116152 835.0625 1110 C835.59218384 1111.18335937 835.59218384 1111.18335937 836.13256836 1112.390625 C842.51839137 1126.66023358 848.86503075 1140.94710332 855.20742798 1155.23605347 C861.55287501 1169.52859099 867.94564787 1183.79909117 874.37374878 1198.05462646 C879.94977538 1210.42168462 885.48112486 1222.80771859 890.97958374 1235.20944214 C895.92054092 1246.3514798 900.90574521 1257.47289292 905.91656494 1268.5836792 C911.85096296 1281.74429334 917.77187517 1294.9108342 923.62057495 1308.10980225 C924.2857501 1309.60991742 924.95217642 1311.10947849 925.61990356 1312.60845947 C926.5341177 1314.6618537 927.44355043 1316.71729472 928.3515625 1318.7734375 C928.86541504 1319.93278809 929.37926758 1321.09213867 929.90869141 1322.28662109 C931 1325 931 1325 931 1327 C800.98 1327 670.96 1327 537 1327 C505.21175221 1230.3107463 505.21175221 1230.3107463 494.51953125 1197.0859375 C493.07859463 1192.60924775 491.63754416 1188.1325947 490.19625854 1183.6560173 C489.77436 1182.34555831 489.35250522 1181.03508522 488.93069458 1179.72459793 C481.54603545 1156.78303811 474.04743504 1133.8802068 466.50534439 1110.98997116 C460.02374592 1091.3172771 453.609997 1071.62683479 447.34020996 1051.88537598 C440.26368914 1029.62656945 432.92309006 1007.45545143 425.60088348 985.27658844 C418.60537461 964.08609969 411.64058295 942.89029545 404.875 921.625 C394.12675906 888.01542117 383.02613174 854.51944049 372 821 C371.67 987.98 371.34 1154.96 371 1327 C248.57 1327 126.14 1327 0 1327 C0 889.09 0 451.18 0 0 Z M371 276 C371 379.95 371 483.9 371 591 C405.92976754 591 445.04580222 583.97530248 472 560 C472.75410156 559.38769531 473.50820312 558.77539062 474.28515625 558.14453125 C501.57997385 535.43786481 510.58349145 496.6138162 514 463 C514.07057617 462.31631348 514.14115234 461.63262695 514.21386719 460.92822266 C518.93669047 412.08823268 514.03722044 354.82817244 482.3840332 315.14672852 C461.33565792 289.61802087 432.01229653 279.55692184 400 276 C390.43 276 380.86 276 371 276 Z " fill="#BF2F32" transform="translate(1909,3196)"/>
<path d="M0 0 C361.83678207 0 361.83678207 0 407.125 3.8125 C408.14488007 3.89648041 409.16476013 3.98046082 410.21554565 4.06698608 C484.41625014 10.21028737 558.02604726 22.19109421 626 54 C626.91910156 54.42861328 627.83820313 54.85722656 628.78515625 55.29882812 C666.87496907 73.24762481 702.81017222 97.53601095 733.8359375 126.01953125 C735.89991208 127.90840329 738.00290254 129.7394626 740.125 131.5625 C743.58323932 134.5693627 746.7930013 137.77182589 750.00390625 141.0390625 C751.91511619 142.91661121 753.89034635 144.64809414 755.9375 146.375 C759.806855 149.71090994 763.15318623 153.37742145 766.5234375 157.2109375 C768.27581435 159.18443446 770.04052218 161.12141914 771.8515625 163.0390625 C779.06265823 170.68070653 785.67375457 178.61371173 792 187 C792.54946289 187.72493652 793.09892578 188.44987305 793.66503906 189.19677734 C801.94657987 200.15791218 809.78948908 211.30517829 817 223 C817.73935791 224.19471924 817.73935791 224.19471924 818.49365234 225.41357422 C839.92474814 260.27203164 856.74494667 297.32589486 870 336 C870.22838562 336.66559937 870.45677124 337.33119873 870.69207764 338.01696777 C894.43435337 407.4333458 906.92740593 479.84212902 913.1875 552.8125 C913.26640472 553.70995941 913.34530945 554.60741882 913.42660522 555.53207397 C916.47334219 590.65975256 917.36301452 625.87418021 917.25794983 661.11825562 C917.24982772 663.99859616 917.24490813 666.87892874 917.24060059 669.75927734 C917.19338709 697.21235722 916.99653987 724.60807306 915 752 C914.86440731 753.92122302 914.7288285 755.84244702 914.59326172 757.76367188 C910.67998447 812.36785464 903.61721457 866.68689221 891 920 C890.74313416 921.08773712 890.74313416 921.08773712 890.4810791 922.19744873 C871.51986286 1002.13727657 839.89295516 1079.87847948 789 1145 C788.29746094 1145.90363281 787.59492187 1146.80726562 786.87109375 1147.73828125 C774.89931788 1162.90253069 761.98578165 1177.08112852 748.38516235 1190.79006958 C746.98088139 1192.20625098 745.58058509 1193.62638008 744.18041992 1195.04663086 C738.0975649 1201.13714208 731.71857701 1206.62756266 725 1212 C723.91024792 1212.92346798 722.82561694 1213.85307466 721.75 1214.79296875 C648.29441246 1278.75358688 551.26050178 1309.6111779 0 1327 C0 889.09 0 451.18 0 0 Z M372 318 C372 540.09 372 762.18 372 991 C411.84325823 991 449.62521816 986.96568086 479.05078125 957.9765625 C480.03443864 956.98495444 481.01754013 955.99279454 482 955 C483.28970703 953.74316406 483.28970703 953.74316406 484.60546875 952.4609375 C496.22894061 940.52331775 504.73474548 925.35699756 511 910 C511.42224854 908.98196289 511.42224854 908.98196289 511.85302734 907.94335938 C545.73043633 825.0690745 542.8313198 724.69963038 512 402 C506.8133478 389.82925233 501.14144804 378.48193486 493 368 C492.25878906 367.03835938 491.51757812 366.07671875 490.75390625 365.0859375 C468.87074433 337.55183775 438.60889874 323.05070243 404 319 C393.32787398 317.94342407 382.73804118 318 372 318 Z " fill="#BF2F32" transform="translate(11163,3196)"/>
<path d="M0 0 C217.8 0 435.6 0 660 0 C660 106.26 660 212.52 660 322 C565.62 322 471.24 322 374 322 C374 377.44 374 432.88 374 490 C459.14 490 544.28 490 632 490 C632 592.96 632 695.92 632 802 C546.86 802 461.72 802 374 802 C374 861.73 374 921.46 374 983 C468.38 983 562.76 983 660 983 C660 1096.52 660 1210.04 660 1327 C442.2 1327 224.4 1327 0 1327 C0 889.09 0 451.18 0 0 Z " fill="#BE2F32" transform="translate(12726,3196)"/>
<path d="M0 0 C217.8 0 435.6 0 660 0 C660 106.26 660 212.52 660 322 C565.62 322 471.24 322 374 322 C374 377.44 374 432.88 374 490 C459.14 490 544.28 490 632 490 C632 592.96 632 695.92 632 802 C546.86 802 461.72 802 374 802 C374 861.73 374 921.46 374 983 C468.38 983 562.76 983 660 983 C660 1096.52 660 1210.04 660 1327 C442.2 1327 224.4 1327 0 1327 C0 889.09 0 451.18 0 0 Z " fill="#BE2F32" transform="translate(3706,3196)"/>
<path d="M0 0 C217.8 0 435.6 0 660 0 C660 106.26 660 212.52 660 322 C565.29 322 470.58 322 373 322 C373 377.44 373 432.88 373 490 C458.47 490 543.94 490 632 490 C632 592.96 632 695.92 632 802 C546.53 802 461.06 802 373 802 C373 861.73 373 921.46 373 983 C467.71 983 562.42 983 660 983 C660 1096.52 660 1210.04 660 1327 C442.2 1327 224.4 1327 0 1327 C0 889.09 0 451.18 0 0 Z " fill="#BE2F32" transform="translate(2921,3196)"/>
<path d="M0 0 C217.8 0 435.6 0 660 0 C660 106.26 660 212.52 660 322 C565.29 322 470.58 322 373 322 C373 377.44 373 432.88 373 490 C458.14 490 543.28 490 631 490 C631 592.96 631 695.92 631 802 C545.86 802 460.72 802 373 802 C373 861.73 373 921.46 373 983 C467.71 983 562.42 983 660 983 C660 1096.52 660 1210.04 660 1327 C442.2 1327 224.4 1327 0 1327 C0 889.09 0 451.18 0 0 Z " fill="#BE2F32" transform="translate(8224,3196)"/>
<path d="M0 0 C217.8 0 435.6 0 660 0 C660 106.26 660 212.52 660 322 C565.29 322 470.58 322 373 322 C373 377.44 373 432.88 373 490 C458.14 490 543.28 490 631 490 C631 592.96 631 695.92 631 802 C545.86 802 460.72 802 373 802 C373 861.73 373 921.46 373 983 C467.71 983 562.42 983 660 983 C660 1096.52 660 1210.04 660 1327 C442.2 1327 224.4 1327 0 1327 C0 889.09 0 451.18 0 0 Z " fill="#BE2F32" transform="translate(5965,3196)"/>
<path d="M0 0 C217.8 0 435.6 0 660 0 C660 106.26 660 212.52 660 322 C565.29 322 470.58 322 373 322 C373 377.44 373 432.88 373 490 C458.14 490 543.28 490 631 490 C631 592.96 631 695.92 631 802 C545.86 802 460.72 802 373 802 C373 861.73 373 921.46 373 983 C467.71 983 562.42 983 660 983 C660 1096.52 660 1210.04 660 1327 C442.2 1327 224.4 1327 0 1327 C0 889.09 0 451.18 0 0 Z " fill="#BE2F32" transform="translate(5180,3196)"/>
<path d="M0 0 C217.47 0 434.94 0 659 0 C659 106.26 659 212.52 659 322 C564.62 322 470.24 322 373 322 C373 377.44 373 432.88 373 490 C458.14 490 543.28 490 631 490 C631 592.96 631 695.92 631 802 C545.86 802 460.72 802 373 802 C373 861.73 373 921.46 373 983 C467.38 983 561.76 983 659 983 C659 1096.52 659 1210.04 659 1327 C441.53 1327 224.06 1327 0 1327 C0 889.09 0 451.18 0 0 Z " fill="#BE2F32" transform="translate(10375,3196)"/>
<path d="M0 0 C0.61968658 0.26165955 1.23937317 0.52331909 1.87783813 0.79290771 C15.38043612 6.51969316 28.61637714 12.78928945 41.9375 18.9375 C41.9375 133.1175 41.9375 247.2975 41.9375 364.9375 C38.30886531 362.51841021 34.87871652 360.19461952 31.4609375 357.5390625 C30.63585693 356.90202393 29.81077637 356.26498535 28.96069336 355.60864258 C28.08678955 354.93341553 27.21288574 354.25818848 26.3125 353.5625 C-6.07159873 328.74327242 -40.57560029 307.18702291 -77.0625 288.9375 C-77.85527344 288.53450684 -78.64804687 288.13151367 -79.46484375 287.71630859 C-123.1599908 265.55805857 -179.44294956 250.20112035 -227.7421875 265.0703125 C-249.07996501 272.65149933 -265.41168162 286.94222583 -275.25 307.25 C-282.38248905 324.5291262 -282.85980538 345.47904839 -275.92675781 362.90478516 C-270.42416643 375.84675573 -262.94223646 387.07715318 -254.0625 397.9375 C-253.27262695 398.90397461 -252.48275391 399.87044922 -251.66894531 400.86621094 C-245.51371266 408.3101178 -239.01167947 415.30379218 -232.15576172 422.10498047 C-230.55587171 423.6940836 -228.96705586 425.29370375 -227.37890625 426.89453125 C-220.92676326 433.35512344 -214.21104391 439.24400725 -207.0625 444.9375 C-204.68783502 446.93494105 -202.34342727 448.96607535 -200 451 C-195.28617173 455.06674412 -190.50732046 459.01966972 -185.62109375 462.87890625 C-182.55525589 465.34561854 -179.55806945 467.88629722 -176.5625 470.4375 C-171.94158924 474.37054732 -167.26473949 478.21494917 -162.51171875 481.98828125 C-155.19465754 487.81158834 -148.01903194 493.79892864 -140.89477539 499.85522461 C-137.52456984 502.71559259 -134.12250538 505.52983985 -130.6875 508.3125 C-120.95905225 516.23727933 -111.54193516 524.54296271 -102.24609375 532.96875 C-100.24512015 534.77284784 -98.2229969 536.54757017 -96.1875 538.3125 C-91.25704015 542.60932646 -86.45938216 547.05061006 -81.64892578 551.48046875 C-80.06039485 552.93943345 -78.46663504 554.39245777 -76.87109375 555.84375 C-72.07641892 560.20958435 -67.33722208 564.59787181 -62.79931641 569.2331543 C-61.10763452 570.89320929 -59.35767837 572.42397205 -57.55078125 573.95703125 C-52.63745587 578.23267211 -48.03710354 582.81223339 -43.4440918 587.42553711 C-42.00224779 588.87274385 -40.55512884 590.31452026 -39.10742188 591.75585938 C-34.41828591 596.44198479 -29.8394969 601.17577974 -25.55102539 606.23461914 C-23.96159936 608.05293086 -22.28640203 609.74684681 -20.5625 611.4375 C-16.85045884 615.10037506 -13.45458825 618.97899094 -10.0625 622.9375 C-9.1787087 623.95731151 -8.29456755 624.97681988 -7.41015625 625.99609375 C4.81158749 640.11717638 16.45188023 654.46925058 26.9375 669.9375 C27.39866211 670.61361328 27.85982422 671.28972656 28.33496094 671.98632812 C68.32175451 730.95904426 87.90703462 804.9102536 88.140625 875.80078125 C88.14345238 876.48593496 88.14627975 877.17108868 88.14919281 877.87700462 C88.16406071 881.52013889 88.1733619 885.16323499 88.17773438 888.80639648 C88.18206745 891.73491224 88.19577351 894.66312477 88.21875 897.59155273 C88.60006018 947.27611708 82.01538946 996.48874149 66.9375 1043.9375 C66.44491699 1045.48920898 66.44491699 1045.48920898 65.94238281 1047.07226562 C53.15971049 1086.76774378 34.21966064 1125.28227108 8.35498047 1158.13476562 C6.91175495 1159.97024224 5.48771112 1161.81938775 4.06640625 1163.671875 C-0.66942356 1169.81345044 -5.53080385 1175.75948252 -10.796875 1181.4609375 C-12.6254653 1183.45977586 -14.39289371 1185.48754678 -16.15625 1187.54296875 C-20.3709592 1192.3703989 -24.85508116 1196.91616023 -29.38574219 1201.44604492 C-30.80169947 1202.86418284 -32.20948289 1204.29046665 -33.6171875 1205.71679688 C-39.04592277 1211.15687352 -44.62236513 1216.20641528 -50.64282227 1220.98535156 C-52.92940978 1222.83012543 -55.09666023 1224.75256807 -57.25 1226.75 C-73.41632917 1241.22517062 -92.2592304 1253.1989653 -111.0625 1263.9375 C-112.25238525 1264.6176416 -112.25238525 1264.6176416 -113.46630859 1265.31152344 C-181.10133275 1303.68545983 -260.75082438 1322.9256965 -338.43359375 1323.140625 C-339.14330889 1323.14345238 -339.85302402 1323.14627975 -340.58424568 1323.14919281 C-344.3547513 1323.16406145 -348.12522002 1323.17336333 -351.89575195 1323.17773438 C-354.93493942 1323.18207653 -357.97383619 1323.19581897 -361.01293945 1323.21875 C-387.99659739 1323.41787945 -414.49314461 1321.86614932 -441.125 1317.1875 C-441.86255524 1317.06088989 -442.60011047 1316.93427979 -443.36001587 1316.80383301 C-514.9944178 1304.46914354 -581.99478562 1276.34579631 -644.0625 1238.9375 C-645.12452637 1238.2976416 -646.18655273 1237.6577832 -647.28076172 1236.99853516 C-665.19112569 1226.18508287 -665.19112569 1226.18508287 -670.0625 1222.9375 C-670.43509549 1220.32947624 -670.43509549 1220.32947624 -670.43164349 1216.94421196 C-670.4406032 1215.01540446 -670.4406032 1215.01540446 -670.44974393 1213.04763114 C-670.44118365 1211.60718177 -670.43234683 1210.16673401 -670.42326355 1208.72628784 C-670.42457062 1207.20663355 -670.42719523 1205.68697992 -670.43103105 1204.16732991 C-670.4377673 1199.97598369 -670.42570049 1195.78486566 -670.41069686 1191.59354854 C-670.39778577 1187.07956729 -670.40212246 1182.56559973 -670.40440369 1178.05160522 C-670.40597955 1170.22568569 -670.3965377 1162.39984099 -670.37969017 1154.57394028 C-670.35534706 1143.25890288 -670.34749971 1131.9439018 -670.3437262 1120.62884106 C-670.33715433 1102.27255971 -670.31717327 1083.91631826 -670.28881836 1065.56005859 C-670.26129678 1047.72477417 -670.2400539 1029.88950058 -670.22729492 1012.05419922 C-670.22650675 1010.95551029 -670.22571858 1009.85682137 -670.22490653 1008.72483884 C-670.22099152 1003.21324195 -670.21720037 997.70164499 -670.21347082 992.19004798 C-670.18235204 946.439171 -670.12949628 900.68833756 -670.0625 854.9375 C-665.53202402 857.47604009 -661.67301238 859.92856097 -657.75 863.375 C-650.62418597 869.48432068 -643.00000295 874.8590832 -635.35644531 880.29492188 C-633.21155287 881.83077079 -631.08325514 883.38628576 -628.9609375 884.953125 C-600.97411706 905.55939158 -571.51940087 924.21856034 -541.0625 940.9375 C-540.18625977 941.41960937 -539.31001953 941.90171875 -538.40722656 942.3984375 C-508.40257279 958.79962235 -476.54733692 971.75030031 -443.0625 978.9375 C-441.90886963 979.20216064 -441.90886963 979.20216064 -440.73193359 979.47216797 C-409.53156954 986.49451179 -374.4577975 983.65100238 -346.91015625 966.85546875 C-326.61612187 953.18692159 -313.24160776 934.47730408 -307.75390625 910.65625 C-302.48141064 882.29796852 -312.43844028 859.11089318 -328.0625 835.9375 C-336.50927337 823.87261531 -345.79208507 812.38655541 -355.7265625 801.51953125 C-357.64225422 799.40201916 -359.52481395 797.26383309 -361.3984375 795.109375 C-369.90368378 785.37008322 -378.87764776 776.03555498 -388 766.875 C-388.58974609 766.28066162 -389.17949219 765.68632324 -389.78710938 765.07397461 C-392.7700982 762.10144801 -395.81394895 759.25381582 -399.00390625 756.50390625 C-403.95200218 752.22493936 -408.48469393 747.56565384 -413.0625 742.8984375 C-416.99825155 738.91656386 -421.03933063 735.14977821 -425.28125 731.49609375 C-428.21112753 728.93245091 -430.88501168 726.13583412 -433.59375 723.34375 C-435.62750307 721.36148435 -437.69394304 719.5079392 -439.84375 717.65625 C-444.84105716 713.32028265 -449.43244837 708.61891982 -454.0625 703.8984375 C-455.0525 702.89683594 -455.0525 702.89683594 -456.0625 701.875 C-456.64 701.28589844 -457.2175 700.69679688 -457.8125 700.08984375 C-459.76832155 698.21891029 -461.76641348 696.44954322 -463.81420898 694.68139648 C-468.062242 690.98620943 -472.06104707 687.08358762 -476.03515625 683.09765625 C-477.1252726 682.00897499 -477.1252726 682.00897499 -478.2374115 680.89830017 C-479.76212296 679.37426444 -481.2855915 677.84898431 -482.80786133 676.32250977 C-485.11883891 674.00617537 -487.43510771 671.69522922 -489.75195312 669.38476562 C-491.2425082 667.89354966 -492.732753 666.40202347 -494.22265625 664.91015625 C-494.90513931 664.22969742 -495.58762238 663.54923859 -496.29078674 662.84815979 C-500.17625729 658.94397215 -503.8839529 654.9408391 -507.46507263 650.75511169 C-510.18013299 647.66581602 -513.12521006 644.8133931 -516.0625 641.9375 C-520.23405284 637.80890241 -524.29925255 633.67317237 -528.09375 629.19140625 C-531.00095041 625.86312325 -534.03812864 622.65916403 -537.0625 619.4375 C-541.82819492 614.35038338 -546.53428073 609.23835279 -551.0625 603.9375 C-551.91714844 602.95007812 -552.77179688 601.96265625 -553.65234375 600.9453125 C-619.77840749 524.42626345 -665.03356346 438.45167589 -665.3125 295.5 C-660.36470951 231.80235619 -642.40282367 166.61919697 -605.0625 113.9375 C-604.2861724 112.8231158 -603.51014492 111.70852249 -602.734375 110.59375 C-591.90365438 95.13482922 -580.24571729 79.60014694 -566.61328125 66.48828125 C-564.94459941 64.81959941 -563.45204812 63.05935068 -561.9375 61.25 C-557.27165443 55.83971614 -551.93300492 51.14325168 -546.63769531 46.36425781 C-545.24674916 45.10438656 -543.86846428 43.83056719 -542.4921875 42.5546875 C-536.24874295 36.80577321 -529.67769546 31.55115805 -522.94970703 26.38769531 C-521.68986526 25.41958922 -520.43302545 24.44756415 -519.17919922 23.47167969 C-504.33212007 11.92183378 -488.53797509 1.98331274 -472.01757812 -6.99462891 C-470.07059147 -8.05808041 -468.13684412 -9.14311761 -466.203125 -10.23046875 C-414.51723475 -38.90730782 -354.52625578 -51.72416956 -296.0625 -56.0625 C-295.13614746 -56.13307617 -294.20979492 -56.20365234 -293.25537109 -56.27636719 C-207.55923828 -62.46416818 -121.23399524 -44.99384909 0 0 Z " fill="#BD2F32" transform="translate(14138.0625,3226.0625)"/>
<path d="M0 0 C0 114.18 0 228.36 0 346 C-9.93641618 339.37572254 -9.93641618 339.37572254 -14 335.875 C-20.60173143 330.39034379 -27.60283018 325.53494689 -34.64941406 320.64306641 C-37.05735514 318.95990859 -39.44797175 317.25432827 -41.8359375 315.54296875 C-52.51361715 307.92087139 -63.42201491 300.93903853 -74.75 294.32568359 C-76.77586987 293.13205584 -78.78233239 291.91384476 -80.78125 290.67578125 C-91.85731276 283.82953551 -103.38508776 277.87414086 -115 272 C-115.87430664 271.55479004 -116.74861328 271.10958008 -117.64941406 270.65087891 C-161.35147727 248.54839699 -219.35076874 230.01557137 -268.12207031 245.68164062 C-289.18520792 252.88457887 -306.00007564 266.28643334 -316.14257812 286.16552734 C-323.50685788 301.92156324 -325.08851988 322.80977992 -319.32592773 339.30444336 C-318.59402037 341.22438139 -317.81193957 343.11259236 -317 345 C-316.72655762 345.64598145 -316.45311523 346.29196289 -316.17138672 346.95751953 C-306.34605086 369.5496755 -289.52050026 387.61176922 -272.375 404.875 C-271.89380707 405.36164124 -271.41261414 405.84828247 -270.9168396 406.34967041 C-265.03477925 412.28125466 -258.97266351 417.84278878 -252.42749023 423.04394531 C-250.10474816 424.91559467 -247.88838355 426.86241426 -245.6875 428.875 C-242.041877 432.15800331 -238.25166148 435.18686887 -234.375 438.1875 C-229.27287029 442.13883062 -224.34767025 446.24066979 -219.5 450.5 C-214.17585847 455.17514134 -208.73675241 459.63424213 -203.13549805 463.97216797 C-198.54664807 467.53701675 -194.09930513 471.24518601 -189.6809082 475.01831055 C-186.34228539 477.86872652 -182.97171756 480.67124891 -179.5625 483.4375 C-173.54939424 488.33513107 -167.67664423 493.38898488 -161.80273438 498.45166016 C-160.02514087 499.97840691 -158.24047985 501.49641708 -156.453125 503.01171875 C-149.44364871 508.96350907 -142.61170297 515.06509962 -135.8828125 521.33203125 C-133.61764407 523.42838631 -131.33485433 525.48264678 -129 527.5 C-123.8392259 531.97410145 -118.84534677 536.6294841 -113.84667969 541.28271484 C-112.61211609 542.43077411 -111.37577525 543.57692508 -110.13769531 544.72119141 C-100.69108933 553.4558023 -91.48213079 562.41390024 -82.375 571.5 C-81.85980804 572.01260376 -81.34461609 572.52520752 -80.81381226 573.05334473 C-75.56629893 578.28000089 -70.40605874 583.53826289 -65.58740234 589.16748047 C-62.86639806 592.30864598 -59.9831682 595.29668126 -57.125 598.3125 C-52.26576193 603.48004747 -47.61607388 608.73598746 -43.19140625 614.28515625 C-41.21867612 616.72909108 -39.18459429 619.10615575 -37.12353516 621.47558594 C-29.83368437 629.89791621 -23.37494048 638.87392036 -17 648 C-16.55269531 648.63663574 -16.10539063 649.27327148 -15.64453125 649.92919922 C27.81621476 712.12821302 45.00811049 788.10235067 47 863 C47.02336426 863.86898926 47.04672852 864.73797852 47.07080078 865.63330078 C49.13676373 957.69885993 27.64732744 1050.14654401 -52 1162 C-52.77730469 1162.88945312 -53.55460938 1163.77890625 -54.35546875 1164.6953125 C-60.21486941 1171.23473899 -66.36453612 1177.49062274 -72.54745483 1183.72268677 C-73.95726623 1185.1444053 -75.36309679 1186.57006788 -76.76879883 1187.99584961 C-82.86907311 1194.1037581 -89.26288538 1199.61152269 -96 1205 C-97.10162616 1205.93501758 -98.19797414 1206.87635133 -99.28515625 1207.828125 C-168.62482402 1268.29309549 -260.98939598 1295.2338248 -380.37109375 1304.203125 C-381.08080889 1304.20595238 -381.79052402 1304.20877975 -382.52174568 1304.21169281 C-386.2922513 1304.22656145 -390.06272002 1304.23586333 -393.83325195 1304.24023438 C-396.87243942 1304.24457653 -399.91133619 1304.25831897 -402.95043945 1304.28125 C-429.93436697 1304.48038144 -456.43026745 1302.92765737 -483.0625 1298.25 C-483.79872589 1298.12372223 -484.53495178 1297.99744446 -485.29348755 1297.86734009 C-510.7436155 1293.48919768 -535.49849166 1287.1761382 -560 1279 C-561.15709473 1278.61473145 -562.31418945 1278.22946289 -563.50634766 1277.83251953 C-609.8153981 1262.24031225 -676.02545478 1238.97454522 -711 1204 C-711.09774241 1202.04526561 -711.12371286 1200.08693624 -711.12304783 1198.12975979 C-711.12503888 1196.84587917 -711.12702993 1195.56199855 -711.12908131 1194.23921245 C-711.12622771 1192.79582224 -711.1232821 1191.35243221 -711.12025452 1189.90904236 C-711.12069009 1188.39025259 -711.12156473 1186.87146289 -711.12284368 1185.35267359 C-711.12509147 1181.15914427 -711.1210635 1176.96564025 -711.11606562 1172.77211416 C-711.11176536 1168.25743379 -711.11320724 1163.74275496 -711.1139679 1159.22807312 C-711.1144934 1151.39943539 -711.11134383 1143.57080597 -711.10573006 1135.74217033 C-711.09761864 1124.42314078 -711.09500021 1113.10411527 -711.09374207 1101.78508312 C-711.09155098 1083.42271915 -711.08488937 1065.06035961 -711.07543945 1046.69799805 C-711.06626679 1028.85587588 -711.05918525 1011.01375491 -711.05493164 993.17163086 C-711.05466892 992.07267921 -711.05440619 990.97372756 -711.05413551 989.84147435 C-711.05283051 984.32860677 -711.0515668 978.81573918 -711.05032361 973.30287158 C-711.03994923 927.53524465 -711.02232939 881.76762255 -711 836 C-709.71970478 836.95938418 -708.43952473 837.91892205 -707.15939331 838.87852478 C-706.44648069 839.41285094 -705.73356808 839.9471771 -704.99905205 840.49769497 C-702.74130691 842.19441011 -700.4967375 843.90744276 -698.2578125 845.62890625 C-687.71076466 853.71678724 -677.09882083 861.68802684 -666.265625 869.38916016 C-664.73510377 870.47734755 -663.20650222 871.56823926 -661.6796875 872.66162109 C-643.05104531 885.99139827 -623.8122308 898.49659676 -604 910 C-603.22269531 910.45294434 -602.44539062 910.90588867 -601.64453125 911.37255859 C-595.45931907 914.96836437 -589.24146691 918.50284026 -583 922 C-582.24831543 922.42394043 -581.49663086 922.84788086 -580.72216797 923.28466797 C-549.73908179 940.63267898 -515.04546813 954.80852709 -480 961 C-478.96343262 961.18328857 -477.92686523 961.36657715 -476.85888672 961.55541992 C-468.29952862 962.92835412 -459.94218997 963.34195582 -451.29638672 963.31567383 C-449.13327584 963.3125121 -446.97153745 963.33609786 -444.80859375 963.36132812 C-419.16542988 963.47921729 -395.28454225 955.1230524 -376 938 C-375.31550781 937.39800781 -374.63101562 936.79601563 -373.92578125 936.17578125 C-358.01591969 921.26614674 -349.18096488 899.94679418 -347.76171875 878.37890625 C-346.96010615 837.15914277 -378.86798075 802.41266088 -405.3203125 773.8984375 C-407.03726033 772.04133067 -408.74165675 770.17249231 -410.4296875 768.2890625 C-416.52484351 761.51033759 -422.87678676 755.01739656 -429.3125 748.5625 C-430.17286865 747.69753906 -431.0332373 746.83257813 -431.91967773 745.94140625 C-436.13679981 741.73455481 -440.39269761 737.76961104 -445 734 C-446.68884242 732.35580815 -448.35542272 730.6884671 -450 729 C-450.943049 728.04332216 -451.88709936 727.08763061 -452.83203125 726.1328125 C-453.31623535 725.64345215 -453.80043945 725.1540918 -454.29931641 724.64990234 C-458.7359726 720.17888676 -463.2073626 715.85680774 -468.0078125 711.7734375 C-471.26140738 708.8771001 -474.27475396 705.74484728 -477.3125 702.625 C-479.40166492 700.58442031 -481.50641949 698.68036921 -483.71875 696.78125 C-489.42478448 691.83530642 -494.64009919 686.40580612 -499.93359375 681.02734375 C-503.46700049 677.45957649 -506.98878494 673.94542502 -510.80859375 670.68359375 C-516.10024999 666.1386534 -520.98037339 661.16890033 -525.90014648 656.23022461 C-527.5592732 654.56573723 -529.22368051 652.90666553 -530.88867188 651.24804688 C-535.88881381 646.25070713 -540.78535887 641.21864553 -545.37866211 635.83959961 C-548.41531451 632.39415829 -551.7227549 629.21446263 -555 626 C-559.610215 621.47810329 -564.03889251 616.8936214 -568.25390625 612 C-571.24113038 608.57839205 -574.37678322 605.29708658 -577.5 602 C-582.45659254 596.76747344 -587.29212198 591.45774394 -592 586 C-592.74056641 585.14269287 -592.74056641 585.14269287 -593.49609375 584.26806641 C-596.49858182 580.7833294 -599.48445956 577.2843737 -602.47119141 573.78613281 C-603.89627954 572.12117836 -605.32803478 570.46223918 -606.76171875 568.8046875 C-613.63404714 560.82222339 -620.05960096 552.5378559 -626.39453125 544.12451172 C-627.91904024 542.1071338 -629.45714802 540.10102308 -631 538.09765625 C-694.86992798 454.75402575 -717.55875114 352.22881183 -704.25 248.8125 C-701.12813758 226.06877477 -695.97813674 203.86198236 -689 182 C-688.72575195 181.14003418 -688.45150391 180.28006836 -688.16894531 179.39404297 C-674.76180927 138.01132376 -653.1973718 99.12832136 -625 66 C-624.05561493 64.8701047 -623.11162845 63.73987617 -622.16796875 62.609375 C-615.78730843 55.01438428 -609.1142732 47.91197159 -602 41 C-599.40377867 38.42023649 -596.82831658 35.82388921 -594.2734375 33.203125 C-588.69426754 27.4992487 -583.01834243 22.16661927 -576.7578125 17.19921875 C-573.9054936 14.92463583 -571.14506241 12.56130007 -568.375 10.1875 C-545.94907543 -8.50559325 -520.28341187 -23.45523113 -494 -36 C-493.26120605 -36.35416992 -492.52241211 -36.70833984 -491.76123047 -37.07324219 C-443.63116556 -59.95193468 -390.94730949 -71.25377625 -338 -75 C-337.20416504 -75.05784668 -336.40833008 -75.11569336 -335.58837891 -75.17529297 C-250.7972258 -81.03434948 -167.13950616 -64.1390126 0 0 Z " fill="#BD2F32" transform="translate(711,3245)"/>
<path d="M0 0 C122.76 0 245.52 0 372 0 C372.04026156 108.9902201 372.04026156 108.9902201 372.05130005 142.72505188 C372.05169472 143.92817353 372.05208938 145.13129517 372.05249601 146.37087505 C372.06575308 186.89395262 372.07625153 227.41703041 372.08468628 267.94010925 C372.08496518 269.27661508 372.08524408 270.6131209 372.08552299 271.94962673 C372.09136948 300.00869988 372.09680278 328.0677731 372.10175936 356.12684642 C372.10424998 370.22370432 372.10681992 384.32056221 372.10946488 398.41742008 C372.10986338 400.54376036 372.11025962 402.67010064 372.11065576 404.79644092 C372.11676932 437.50473696 372.12457481 470.2130315 372.1373291 502.92132568 C372.1376029 503.62356177 372.1378767 504.32579785 372.13815879 505.04931381 C372.14258304 516.37005893 372.14715045 527.69080399 372.15173688 539.01154905 C372.16495933 571.65409272 372.17710773 604.29663524 372.18227959 636.93918133 C372.18244019 637.94798499 372.18244019 637.94798499 372.18260404 638.97716852 C372.18483182 653.0842396 372.18660638 667.19131071 372.18782998 681.29838192 C372.18840624 687.90686997 372.18905751 694.51535801 372.18975449 701.12384605 C372.18988933 702.424414 372.19002418 703.72498195 372.19016311 705.06496105 C372.19252098 725.94954357 372.20178205 746.83411753 372.21366407 767.71869657 C372.22547831 788.74559784 372.22992605 809.77249066 372.22700275 830.79939512 C372.2254886 843.27181406 372.22947406 855.74420195 372.24159509 868.21661525 C372.24915849 876.57505071 372.24928317 884.9334661 372.24366363 893.29190301 C372.24067726 898.03717144 372.24063423 902.78238164 372.24976636 907.52764354 C372.30236996 936.56018872 371.76444237 965.64408521 368.25 994.5 C368.12644638 995.54225235 368.12644638 995.54225235 368.00039673 996.6055603 C357.92234131 1081.20629103 330.49132396 1163.42922436 276 1230 C275.55736816 1230.5470459 275.11473633 1231.0940918 274.65869141 1231.65771484 C267.11131316 1240.92028297 258.79411209 1249.41327322 250.375 1257.875 C249.8460614 1258.40920563 249.3171228 1258.94341125 248.77215576 1259.49380493 C241.85383649 1266.46532967 234.7443622 1272.93555257 227 1279 C226.27022949 1279.5784668 225.54045898 1280.15693359 224.78857422 1280.75292969 C177.67748163 1317.86397339 122.38751976 1340.3135835 63.1875 1349.25 C62.18879883 1349.40106201 61.19009766 1349.55212402 60.16113281 1349.70776367 C56.77837172 1350.18696113 53.39360735 1350.60436314 50 1351 C48.89534393 1351.1308046 48.89534393 1351.1308046 47.76837158 1351.26425171 C32.35033593 1353.03489757 17.00845697 1353.34127634 1.49902344 1353.31567383 C-2.46708023 1353.31252613 -6.43242589 1353.33603092 -10.3984375 1353.36132812 C-80.93110826 1353.53620702 -163.33679923 1335.77546718 -223 1296 C-223.37259549 1293.65486944 -223.37259549 1293.65486944 -223.36914349 1290.64702415 C-223.37511663 1289.5039717 -223.38108978 1288.36091925 -223.38724393 1287.18322885 C-223.3785054 1285.91671444 -223.36976688 1284.65020003 -223.36076355 1283.3453064 C-223.36207072 1281.99476872 -223.3646955 1280.64423177 -223.36853105 1279.29369891 C-223.37526552 1275.5698064 -223.363203 1271.84617086 -223.34819686 1268.12231112 C-223.33528319 1264.11140205 -223.33962264 1260.10050835 -223.34190369 1256.08958435 C-223.34347939 1249.1361788 -223.33403926 1242.18285748 -223.31719017 1235.22947311 C-223.29284484 1225.17596786 -223.28499949 1215.12250348 -223.2812262 1205.06897195 C-223.27465468 1188.75917433 -223.25467457 1172.44942165 -223.22631836 1156.13964844 C-223.19879588 1140.29297104 -223.17755344 1124.44630583 -223.16479492 1108.59960938 C-223.16400675 1107.62338727 -223.16321858 1106.64716516 -223.16240653 1105.64136057 C-223.15849151 1100.74411061 -223.15470036 1095.84686057 -223.15097082 1090.94961047 C-223.11985312 1050.29970906 -223.06699831 1009.64985709 -223 969 C-219.65161417 971.21560963 -216.38452022 973.38980795 -213.328125 975.99609375 C-212.67336182 976.54797363 -212.01859863 977.09985352 -211.34399414 977.66845703 C-210.65297607 978.25224121 -209.96195801 978.83602539 -209.25 979.4375 C-200.47312117 986.74757374 -191.36402164 993.46596662 -182 1000 C-181.28263672 1000.50772949 -180.56527344 1001.01545898 -179.82617188 1001.53857422 C-147.7575837 1024.16539085 -113.54334941 1037.50449596 -74 1031 C-53.5577278 1027.07276874 -36.03329941 1017.2339478 -24 1000 C-3.18766233 967.58096421 -0.83188897 923.5292087 -0.8613348 886.06741428 C-0.85888075 884.51163506 -0.85599493 882.95585646 -0.85272202 881.40007874 C-0.84501664 877.15032973 -0.84338319 872.90059742 -0.8427946 868.65084227 C-0.8410552 864.01796588 -0.83356414 859.38509808 -0.82681805 854.75222677 C-0.81579206 846.64125086 -0.80840144 838.53027804 -0.80341911 830.41929626 C-0.79599402 818.3586486 -0.78290651 806.29801168 -0.76867336 794.23737037 C-0.74488813 773.94735881 -0.72567333 753.65734534 -0.70907402 733.36732674 C-0.69262647 713.28110555 -0.67414097 693.19488794 -0.65294075 673.10867119 C-0.65162314 671.85921749 -0.65030554 670.60976379 -0.648948 669.32244785 C-0.64224581 662.97696169 -0.63550727 656.63147557 -0.62875474 650.28598946 C-0.58100673 605.35480696 -0.53781662 560.42362112 -0.49731445 515.49243164 C-0.48750031 504.60732012 -0.4776701 493.72220861 -0.46777344 482.83709717 C-0.46715964 482.16197772 -0.46654584 481.48685827 -0.46591344 480.79128066 C-0.43734364 449.39141473 -0.40619387 417.99155152 -0.37438093 386.59168873 C-0.37231499 384.55253502 -0.37025017 382.5133813 -0.36818558 380.47422759 C-0.35450132 366.96035511 -0.34077265 353.44648269 -0.32701423 339.93261029 C-0.29898781 312.40392122 -0.27124331 284.87523188 -0.2436676 257.34654236 C-0.2423994 256.0808507 -0.2411312 254.81515904 -0.23982458 253.51111309 C-0.20097192 214.72054968 -0.16330751 175.92998525 -0.1268158 137.13941956 C-0.1257794 136.03823095 -0.12474301 134.93704235 -0.12367522 133.8024844 C-0.08171687 89.20165694 -0.04101656 44.60082833 0 0 Z " fill="#BA2F31" transform="translate(4656,3196)"/>
<path d="M0 0 C122.43 0 244.86 0 371 0 C371 437.91 371 875.82 371 1327 C248.57 1327 126.14 1327 0 1327 C0 889.09 0 451.18 0 0 Z " fill="#BF2F32" transform="translate(12192,3196)"/>
<path d="M0 0 C95.04 0 190.08 0 288 0 C288 469.26 288 938.52 288 1422 C192.96 1422 97.92 1422 0 1422 C0 952.74 0 483.48 0 0 Z " fill="#AE2E30" transform="translate(5254,671)"/>
<path d="M0 0 C94.71 0 189.42 0 287 0 C287 469.26 287 938.52 287 1422 C192.29 1422 97.58 1422 0 1422 C0 952.74 0 483.48 0 0 Z " fill="#AE2E30" transform="translate(9154,671)"/>
<path d="M0 0 C94.71 0 189.42 0 287 0 C287 469.26 287 938.52 287 1422 C192.29 1422 97.58 1422 0 1422 C0 952.74 0 483.48 0 0 Z " fill="#AE2E30" transform="translate(8684,671)"/>
<path d="M0 0 C94.71 0 189.42 0 287 0 C287 469.26 287 938.52 287 1422 C192.29 1422 97.58 1422 0 1422 C0 952.74 0 483.48 0 0 Z " fill="#AE2E30" transform="translate(4785,671)"/>
</svg>
